<svg width="368" height="240" viewBox="0 0 368 240" xmlns="http://www.w3.org/2000/svg" xmlns:xlink="http://www.w3.org/1999/xlink"><title>Page 1</title><defs><path id="a" d="M0 .125h367.533v239.382H0z"/><path id="c" d="M0 .125h367.533v239.382H0z"/></defs><g fill="none" fill-rule="evenodd"><path d="M201.522 127.694c-2.794-6.157-6.228 1.5-7.118-5.11-2.357-17.493-14.89-5.876-14.89-9.29 0-19.763-6.613-13.317-22.04-13.317 0-19.468-16.1-11.126-13.475-2.37 6.275 20.93-15.884 13.2-15.937 13.104-10.05-18.653-41.01-6.77-41.482-11.636-3.066-31.638-17.873-8.247-18.647-16.75C65.8 58.952 47.63 76.626 47.957 69.627c1.244-26.592-11.22-12.306-11.19-11.122.483 17.948-7.768 12.055-8.166 9.6-4.532-27.936-9.453 10.09-16.498 9.884-4.293-.126-5.983 17.196-6.18 35.273-.24 21.606 4.606 35.688.683 49.595-11.893 42.16-11.482 70.94 33.287 76.303 54.944-1.705 115.212-5.782 169.378-2.698 65.77 3.745 124.39 4.555 137.88-.547 16.185-6.12 20.505-21.555 20.38-41.726-.097-15.628-.15-35.795-3.94-45.952-1.06-2.846-5.1-4.19-6.688-4.087-7 .464-2.788 1.592-4.93-8.735-8.13-1.87-4.298.212-3.716 7.582-7.035.66-7.953-2.264-7.953-8.642 0-12.765-.433-12.357-6.316-12.357-5.207 0-2.84 15.424-2.84 19.93 0 3.207-17.314 1.427-17.475-.383-1.406-15.67-10.328 5.153-10.328-12.09-12.136 0-1.085 15.76-6.78 15.76-11.367 0-16.276 3.043-16.276-5.084-2.955 0-7.11-1.184-6.06 1.357 2.54 6.146-13.778 2.1-13.775 2.034.482-11.268-19.666-2.942-19.666-11.102 0-9.265-11.38-3.013-11.36-2.668.76 13.18-7.594 8.595-9.45 3.617-2.178-5.845-12.585-6.084-18.455-5.673" fill="#EEEDED"/><path d="M331.9 157.546c-10.72 12.866-123.265 15.335-93.256 30.377 5.657 2.836 22.108 6.277.624 10.546-37.902 7.53-97.463 4.323-137.593 4.87-84.568 1.147-112.335 23.73-5.425 23.757 43.636.01 133.45-5.724 147.547-7.44 6.975-.85 80.75-8.293 79.303-18.065-1.453-9.813-89.623-7.39-21.647-27.41 7.353-2.165 45.95-12.313 49.097-19.643-.41-.177-17.083 5.29-18.65 3.006" fill="#FEFEFE"/><path d="M120.623 31.492c-.038.172-.21.28-.38.24-.173-.037-.282-.208-.243-.38.434-1.917.358-3.49-.08-4.75-.524-1.516-1.576-2.595-2.892-3.295-1.334-.71-2.94-1.033-4.548-1.03-2.116.003-4.224.573-5.71 1.57l-.173.115c-.146.1-.345.06-.443-.086-.033-.05-.05-.105-.053-.16-.024-.43-.148-.87-.358-1.306-.764-1.59-2.638-3.15-5.01-4.276-2.39-1.137-5.276-1.83-8.036-1.67-1.465.084-2.894.406-4.19 1.03-.16.075-.35.008-.426-.15-.076-.16-.01-.35.15-.427 1.377-.66 2.887-1.003 4.43-1.09 2.87-.166 5.867.55 8.345 1.728 2.497 1.188 4.485 2.856 5.312 4.58.163.337.28.678.352 1.02 1.565-.966 3.688-1.513 5.81-1.516 1.705-.004 3.417.342 4.848 1.103 1.45.772 2.613 1.967 3.197 3.65.474 1.37.56 3.06.098 5.1" fill="#D0CDCE"/><path d="M126.91 27.514c.104.017.18.142.167.28-.013.137-.11.235-.214.22-.584-.09-1.868-.045-3.14 0-1.323.046-2.632.094-3.173-.012-.104-.02-.177-.148-.16-.285.013-.137.11-.232.216-.212.513.1 1.804.053 3.106.008 1.29-.046 2.592-.092 3.197 0M130.058 27.89c-.105 0-.192-.092-.192-.205 0-.112.087-.202.192-.202h2.23c.108 0 .194.09.194.202 0 .113-.086.204-.193.204h-2.232zM109.55 17.28c-.107 0-.194-.108-.194-.242 0-.132.087-.24.193-.24 3.324 0 6.52-.038 9.712-.076 3.266-.038 6.53-.078 9.682-.078.105 0 .19.107.19.24s-.085.24-.19.24c-3.31 0-6.493.04-9.68.077-3.272.04-6.547.08-9.715.08M124.42 22.438c-.106 0-.193-.09-.193-.203 0-.112.087-.203.193-.203h4.15c.108 0 .194.09.194.203 0 .113-.086.203-.193.203h-4.15zM167.322 41.89c.106 0 .192.086.192.193 0 .105-.086.19-.192.19-2.06 0-4.232-.02-6.405-.044-6.16-.065-12.332-.13-18.442.342-.106.007-.2-.072-.206-.177-.01-.106.07-.198.176-.207 6.113-.47 12.3-.406 18.473-.342 2.1.023 4.2.044 6.402.044M171.86 37.568c.106.012.184.137.175.277-.01.14-.103.243-.208.23-.38-.046-2.562-.087-4.77-.105-2.146-.017-4.318-.012-4.88.03-.104.008-.196-.1-.2-.242-.007-.14.074-.26.18-.268.562-.042 2.745-.047 4.903-.03 2.216.018 4.41.06 4.8.108M185.675 26.642c-.105.002-.193-.11-.195-.25-.002-.14.082-.256.187-.258l4.393-.116c.105-.002.192.11.195.25.002.14-.082.256-.188.26l-4.392.114z" fill="#D0CDCE"/><path d="M21.187 229.207c-.176-.002-.318-.147-.316-.323.004-.176.15-.317.324-.315 28.357.402 122.61-.18 199.358-4.166 46.27-2.402 86.164-6.038 101.38-11.437 5.538-1.965 9.29-4.405 11.224-6.944 1.098-1.442 1.603-2.913 1.507-4.338-.096-1.424-.794-2.82-2.098-4.112-2.29-2.268-6.42-4.21-12.43-5.454-4.3-.89-9.587-1.728-15.26-2.484-6.534-.87-13.578-1.635-20.21-2.244-5.02-.462-8.375-1.386-10.024-2.593-.955-.7-1.37-1.507-1.24-2.386.123-.838.76-1.713 1.917-2.595 2.954-2.254 9.454-4.68 19.59-6.77 14.51-2.992 23.717-5.297 31.195-7.846 7.473-2.546 13.22-5.337 20.82-9.298.156-.083.35-.02.43.134.083.157.02.35-.134.432-7.632 3.977-13.405 6.78-20.91 9.338-7.5 2.556-16.73 4.867-31.275 7.865-10.035 2.068-16.444 4.452-19.328 6.652-1.018.777-1.575 1.51-1.673 2.18-.093.628.238 1.228.987 1.777 1.56 1.142 4.802 2.022 9.702 2.473 6.644.61 13.696 1.375 20.235 2.246 5.692.758 10.996 1.6 15.306 2.49 6.138 1.27 10.38 3.275 12.753 5.626 1.418 1.405 2.18 2.94 2.286 4.523.105 1.582-.443 3.198-1.64 4.768-2.004 2.635-5.856 5.152-11.518 7.16-15.28 5.42-55.235 9.067-101.56 11.472-76.755 3.985-171.03 4.568-199.397 4.165" fill="#101417"/><path d="M180.886 205.764c-.105 0-.193-.083-.195-.188 0-.105.083-.193.19-.195 4.047-.088 8.782-.18 13.832-.28 19.1-.374 42.714-.837 50.81-1.543 6.01-.525 9.492-1.415 11.234-2.484.918-.563 1.334-1.168 1.372-1.786.04-.624-.298-1.284-.888-1.943-1.368-1.532-4.055-3.035-6.575-4.147-5.52-2.437-11.362-5.368-12.76-8.428-1.427-3.126 1.65-6.327 14.07-9.17 7.533-1.725 18.224-3.26 29.23-4.84 13.51-1.938 27.498-3.946 36.67-6.452.1-.028.206.032.234.134.027.102-.034.208-.136.235-9.198 2.514-23.195 4.522-36.715 6.463-11 1.58-21.685 3.113-29.2 4.833-12.074 2.765-15.12 5.76-13.805 8.637 1.344 2.943 7.112 5.827 12.566 8.235 2.56 1.13 5.298 2.664 6.707 4.244.656.733 1.03 1.484.985 2.22-.047.745-.52 1.454-1.556 2.09-1.79 1.098-5.326 2.01-11.4 2.54-8.09.706-31.72 1.168-50.836 1.542-5.05.1-9.785.192-13.834.282" fill="#101417"/><path d="M10.425 128.002c-.094.048-.21.01-.258-.084-.048-.094-.01-.21.084-.26 6.456-3.29 21.952-5.92 38.87-6.425 14.13-.42 29.26.642 40.952 4.04.102.03.16.138.13.24-.028.1-.135.16-.236.13-11.65-3.388-26.74-4.447-40.837-4.027-16.863.5-32.293 3.117-38.705 6.386M167.728 146.77c-.104-.018-.176-.115-.16-.22.017-.104.114-.175.22-.16 24.853 3.863 46.316 6.353 67.72 7.197 21.4.844 42.745.044 67.37-2.673.104-.01.2.065.21.17.013.105-.063.2-.17.212-24.64 2.718-46.003 3.52-67.425 2.674-21.417-.845-42.894-3.337-67.765-7.2m-32.302-7.81c-.1-.038-.147-.15-.108-.248.04-.097.15-.145.25-.107 1.94.774 4.05 1.516 6.317 2.22 2.244.696 4.64 1.355 7.18 1.97.104.024.167.127.143.23-.025.103-.13.166-.23.14-2.55-.614-4.954-1.275-7.206-1.974-2.27-.704-4.39-1.45-6.346-2.23" fill="#919495"/><path d="M52.466 31.013c-.09.15-.288.2-.44.11-.15-.093-.2-.29-.108-.44.985-1.63 1.008-3.366.438-4.896-.388-1.042-1.05-1.992-1.87-2.754-.82-.76-1.794-1.333-2.81-1.62-1.39-.394-2.86-.255-4.113.666-.142.103-.343.072-.447-.07-.04-.057-.06-.123-.06-.188h-.002c0-1.797-.59-3.27-1.558-4.443-1.05-1.27-2.552-2.2-4.243-2.808-1.705-.615-3.604-.908-5.435-.908-2.774 0-5.37.67-6.87 1.91-.136.112-.34.093-.45-.043-.113-.135-.095-.337.042-.45 1.615-1.334 4.365-2.056 7.278-2.056 1.896 0 3.87.305 5.65.947 1.795.648 3.394 1.64 4.522 3.002.954 1.155 1.57 2.572 1.685 4.27 1.31-.756 2.78-.84 4.173-.445 1.115.316 2.182.94 3.074 1.768.89.827 1.608 1.86 2.032 2.998.634 1.704.608 3.634-.488 5.45M12.495 24.794c-.066.163-.252.242-.416.176-.164-.067-.243-.253-.176-.416.984-2.406 3.747-3.51 6.59-3.814 1.228-.13 2.47-.115 3.59.008 1.122.124 2.126.36 2.867.662.834.34 1.36.79 1.416 1.304.018.175-.11.332-.284.35-.176.02-.334-.107-.352-.282-.028-.26-.41-.533-1.02-.782-.683-.28-1.628-.498-2.698-.617-1.075-.118-2.27-.133-3.45-.008-2.64.283-5.19 1.276-6.067 3.42" fill="#D0CDCE"/><path d="M53.257 29.09c-.106.006-.196-.1-.2-.24-.006-.138.076-.256.182-.262 2.325-.146 4.434-.1 6.546-.052 2.107.046 4.22.093 6.556-.053.106-.006.195.1.2.24.005.138-.076.256-.182.262-2.344.147-4.464.1-6.58.053-2.103-.046-4.203-.093-6.523.052M56.49 26.484c-.106.01-.197-.09-.204-.22-.008-.132.073-.246.18-.254 1.27-.105 2.547-.093 3.825-.08 1.27.012 2.538.025 3.812-.08.106-.01.198.09.205.222.007.13-.073.244-.18.253-1.276.105-2.558.092-3.84.08-1.265-.013-2.53-.025-3.797.08M70.58 28.81c-.106.018-.202-.082-.215-.22-.012-.14.063-.265.168-.282.63-.097 1.98-.05 3.32-.002 1.355.05 2.698.096 3.23-.008.106-.02.204.076.22.214.013.138-.06.267-.164.286-.562.11-1.923.062-3.296.013-1.322-.045-2.658-.093-3.265 0M42.57 18.01c-.105.003-.192-.08-.195-.188-.002-.105.08-.194.187-.196l9.874-.25c.105-.002.194.08.196.188.003.106-.082.194-.186.197l-9.875.25zM46.38 15.226c-.092.05-.208.013-.257-.08-.05-.094-.013-.21.08-.26.55-.286 5.198-.31 8.47-.328 1.133-.006 2.1-.012 2.67-.026.105-.002.192.08.195.187.002.105-.08.192-.187.195-.564.014-1.537.02-2.677.025-3.23.018-7.825.042-8.292.286" fill="#D0CDCE"/><mask id="b" fill="#fff"><use xlink:href="#a"/></mask><path d="M22.64.76c-.106.004-.195-.08-.2-.185-.004-.105.078-.196.184-.2l5.538-.25c.106-.005.195.078.2.184.004.105-.078.195-.184.2L22.64.76z" fill="#D0CDCE" mask="url(#b)"/><path d="M63.37 34.013c.105 0 .192.107.192.24s-.087.24-.192.24c-1.116 0-2.324-.018-3.53-.036-1.14-.017-2.275-.034-3.497-.034-.107 0-.192-.11-.192-.24 0-.133.086-.24.193-.24 1.098 0 2.3.018 3.5.035 1.144.018 2.292.035 3.527.035M99.665 41.76c.105 0 .192.09.192.202 0 .112-.087.203-.192.203h-5.78c-.106 0-.192-.09-.192-.203 0-.112.086-.203.19-.203h5.782zM88.162 38.836c.106 0 .192.104.192.232 0 .127-.086.23-.192.23-.193 0-.414.006-.686.013-1.165.03-3.122.08-3.634-.164-.1-.046-.148-.18-.11-.3.04-.117.15-.176.25-.13.442.21 2.35.163 3.487.134.31-.007.574-.014.692-.014" fill="#D0CDCE"/><path d="M163.226 78.023c-.106.007-.196-.075-.203-.18-.006-.105.075-.197.18-.203 5.728-.358 6.852.425 6.976 2.407.03.488-.005 1.045-.045 1.676-.055.864-.12 1.872-.033 3.022.007.106-.072.2-.177.206-.106.01-.198-.07-.206-.176-.09-1.174-.024-2.198.03-3.074.04-.62.075-1.166.047-1.63-.108-1.714-1.165-2.385-6.57-2.047M173.783 105.516c0 .105-.086.192-.193.192-.105 0-.19-.087-.19-.192 0-1.168.063-2.425.126-3.673.07-1.35.138-2.69.122-3.898-.035-2.817-.52-4.953-2.53-4.927-3.713.047-4.08-.54-4.476-1.175-.36-.576-.75-1.2-4.9-1.287-.17-.004-.405-.066-.665-.136-.307-.08-.654-.174-.916-.174-.105 0-.19-.086-.19-.193 0-.105.085-.19.19-.19.31 0 .683.098 1.015.187.238.063.454.12.574.123 4.36.093 4.806.807 5.217 1.467.338.54.65 1.04 4.145.995 2.322-.03 2.88 2.27 2.92 5.306.015 1.228-.054 2.57-.122 3.923-.064 1.232-.127 2.474-.127 3.653M147.62 73.43c.053-.09.17-.123.262-.07.09.052.123.17.07.26-1.24 2.154-2.007 2.438-2.465 2.61-.2.072-.32.118-.388.4-.134.555-.13 1.86-.118 5.12.005 1.237.01 2.73.01 4.188 0 .707.065 1.66.14 2.74.098 1.422.21 3.06.21 4.638 0 3.566-.58 6.847-3.182 6.847H140c-.108 0-.193-.086-.193-.193 0-.105.085-.19.192-.19h2.16c2.29 0 2.8-3.098 2.8-6.464 0-1.574-.114-3.2-.21-4.613-.076-1.09-.143-2.055-.143-2.765 0-1.88-.005-3.146-.008-4.188-.013-3.294-.018-4.61.126-5.208.117-.482.308-.553.627-.672.41-.152 1.096-.407 2.267-2.44M156.513 90.907c0 .106-.086.192-.193.192-.106 0-.19-.087-.19-.193 0-.488.058-1.336.133-2.384.14-1.953.328-4.61.265-6.926-.074-2.75-.484-5.025-1.724-4.992-.512.014-.69-.164-.697-.454-.006-.203.106-.442.228-.703.122-.26.256-.55.258-.78.003-.34-.326-.61-1.572-.62-.64-.006-.853-.2-.85-.508v-.012c.006-.21.14-.445.287-.705.163-.288.35-.614.35-.9 0-.627-.906-1.19-4.914-1.19-.106 0-.192-.088-.192-.193 0-.106.087-.192.193-.192 4.32 0 5.297.747 5.297 1.575 0 .384-.212.76-.4 1.09-.123.215-.234.41-.237.524v.006c0 .072.116.118.472.12 1.547.014 1.955.457 1.95 1.007 0 .315-.155.642-.293.94-.102.217-.195.417-.193.532 0 .055.078.086.305.08 1.537-.04 2.036 2.406 2.117 5.366.062 2.342-.127 5.005-.266 6.963-.073 1.035-.133 1.873-.133 2.357M74.737 70.838c.106 0 .193.086.193.192 0 .106-.087.192-.193.192-1.02 0-2.06-.307-3.023-.593-.182-.055-.362-.108-.55-.162-.084-.023-.14-.1-.14-.184 0-3.683.212-6.27.373-8.24.422-5.16.494-6.027-4.657-11.54-.073-.077-.068-.198.01-.27.077-.072.2-.068.27.01 5.267 5.636 5.195 6.528 4.76 11.83-.158 1.936-.365 4.47-.37 8.065l.412.12c.938.28 1.945.578 2.915.578M91.45 83.65c.1.04.146.15.106.25-.04.095-.15.143-.25.103-2.95-1.204-3.253-2.012-3.005-2.617.08-.19.206-.345.323-.487.08-.098.153-.187.185-.26.03-.07-.02-.148-.28-.264-1.197-.53-1.985-.54-2.498-.547-.556-.01-.85-.013-1.017-.505-.15-.443-.13-1.328-.087-3.215.03-1.366.074-3.27.074-5.984 0-4.817-.896-5.656-3.66-5.656-.66 0-1.418.045-2.287.096-1.188.07-2.585.152-4.21.152-.105 0-.192-.087-.192-.192 0-.106.088-.193.194-.193 1.627 0 3.01-.08 4.186-.15.884-.05 1.652-.097 2.31-.097 3.054 0 4.044.896 4.044 6.04 0 2.65-.044 4.597-.076 5.992-.04 1.84-.06 2.704.07 3.084.078.236.28.24.657.243.545.008 1.382.02 2.647.58.538.238.602.49.477.77h-.002c-.052.12-.143.23-.24.348-.1.12-.208.253-.264.387-.173.425.147 1.036 2.797 2.12M180.253 103.608c-.106 0-.193-.086-.193-.192 0-.106.087-.192.193-.192 4.092 0 4.94.745 4.94 3.566 0 .754-.066 1.668-.143 2.766-.117 1.642-.264 3.705-.264 6.285 0 4.62 1.355 5.63 3.036 5.63.685 0 1.432-.16 2.165-.315.73-.156 1.448-.31 2.1-.31 1.546 0 2.693.808 2.693 4.218l-.004 1.88c-.01 3.668-.026 9.574.144 10.68.015.104-.056.202-.16.218-.106.017-.205-.055-.22-.16-.174-1.126-.157-7.054-.147-10.736.002-.588.003-1.108.003-1.88 0-3.1-.984-3.834-2.308-3.834-.617 0-1.313.15-2.02.3-.756.16-1.525.324-2.246.324-1.893 0-3.42-1.077-3.42-6.013 0-2.585.147-4.66.264-6.31.078-1.087.142-1.99.142-2.74 0-2.517-.78-3.182-4.555-3.182M36.132 75.518c-.102.028-.207-.033-.235-.135-.028-.102.033-.207.135-.235 1.26-.346.83-2.087.305-4.205-.684-2.763-1.517-6.13.89-8.216 1.028-.89.708-2.687.4-4.41l-.003-.017c-.167-.938-.33-1.855-.278-2.623.087-1.285.735-2.145 2.803-2.005.756.05 1.038-1.606 1.19-3.856.063-.932.1-1.948.14-2.988.125-3.39.26-7.038 1.294-8.605.61-.923 1.494-1.163 2.8-.302.057.038.087.1.087.16 0 .106.003.218.007.336.038 1.298.253 4.59.6 7.562.337 2.884.766 5.454 1.197 5.454h.005c.01 0 .022 0 .033.003.045.004.117.014.213.026.42.06 1.35.185 1.914.185.107 0 .192.086.192.192 0 .106-.085.192-.192.192-.58 0-1.534-.13-1.965-.188l-.188-.026h-.014c-.694 0-1.22-2.73-1.578-5.795-.348-2.976-.564-6.286-.602-7.593l-.006-.24c-1.03-.646-1.72-.46-2.184.246-.974 1.477-1.108 5.07-1.23 8.408-.04 1.055-.08 2.084-.14 3.003-.168 2.468-.532 4.284-1.602 4.21-1.77-.12-2.32.59-2.394 1.65-.05.725.11 1.618.273 2.53l.005.017c.327 1.827.667 3.73-.526 4.766-2.23 1.933-1.43 5.175-.77 7.835.572 2.318 1.043 4.22-.578 4.668M51.444 63.545c-.106 0-.193-.085-.193-.192 0-.106.088-.192.194-.192 1.905 0 2.463 1.003 2.463 2.435 0 .94-.255 2.068-.512 3.21-.222.985-.448 1.982-.505 2.86-.1 1.512.312 2.676 2.183 2.8.106.006.186.098.18.203-.006.106-.098.187-.203.18-2.176-.144-2.658-1.477-2.543-3.208.06-.905.29-1.918.515-2.92.25-1.117.5-2.22.5-3.125 0-1.205-.47-2.05-2.078-2.05M36.692 48.353c.1.033.154.14.12.242-.032.1-.142.154-.24.12-2.84-.955-4.39-.528-5.252-.29h-.007c-.57.158-.887.244-1.12-.128-.224-.363-.24-1.222-.273-3.168-.028-1.616-.07-3.997-.248-7.486 0-.003-1.544-.096-3.3-.23-.697-.054-1.42-.09-2.092-.093-.672 0-1.3.03-1.806.115-.666.112-1.104.3-1.104.604v.637c.007 1.723.01 2.505-.566 2.887-.457.303-1.225.28-2.63.237-.62-.018-1.375-.042-2.323-.042-.105 0-.19-.085-.19-.19 0-.108.085-.194.19-.194.91 0 1.69.025 2.335.044 1.326.04 2.05.062 2.407-.174.404-.267.402-.985.396-2.567l-.002-.638c0-.54.565-.84 1.425-.983.528-.088 1.178-.12 1.87-.12.694.003 1.425.04 2.12.094 1.412.108 2.706.357 3.304.497.033-.048.087-.082.15-.084.105-.006.196.076.2.18.178 3.484.22 5.877.25 7.5.03 1.87.046 2.697.216 2.97v.002c.08.128.298.07.688-.037l.01-.003c.9-.248 2.526-.696 5.474.298M31.315 60.42c.106 0 .193.086.193.193 0 .105-.087.19-.193.19-1.325 0-4.44.063-7.032.148-1.934.063-3.586.14-4 .213-1.504.267-1.918.928-2.908 2.51-.752 1.203-1.83 2.92-3.93 5.38-1.037 1.21-1.84 1.204-3.597 1.19H9.84c-.687-.005-1.53-.01-2.608.06-.106.006-.197-.075-.204-.18-.007-.106.074-.197.18-.203 1.083-.07 1.94-.064 2.64-.06 1.636.014 2.382.02 3.303-1.057 2.08-2.43 3.15-4.14 3.897-5.334 1.055-1.683 1.495-2.387 3.167-2.685.428-.076 2.1-.153 4.055-.218 2.62-.085 5.736-.147 7.043-.147M113.773 72.66c.105.008.185.1.178.205-.006.106-.098.185-.203.178l-.35.008c-1.56.04-7.366.183-7.407-.565-.033-.588-.02-1.058-.008-1.43.005-.172.01-.324.01-.45-.005-.625-.185-.74-1.45-.73-3.53.027-4.058.875-4.044 2.574.002.35.028.75.055 1.183.056.877.12 1.9.032 3.075-.007.106-.1.184-.205.177-.106-.008-.185-.1-.177-.206.086-1.15.022-2.16-.033-3.022-.027-.43-.052-.826-.056-1.2v-.006c-.015-1.955.563-2.93 4.424-2.96 1.602-.013 1.83.163 1.836 1.11 0 .138-.004.29-.01.463-.01.364-.024.823.008 1.4.02.377 5.534.24 7.014.203.226-.005.363-.01.387-.007M202.144 133.08c-.105 0-.192-.085-.192-.19 0-.107.087-.193.192-.193 6.278 0 7.613.56 7.613 1.357 0 .293-.175.583-.358.884-.11.18-.222.362-.29.536-.157.41-.063.837 1 1.25.127.046 1.542.084 3.374.112 3.266.048 7.93.058 8.917.058.106 0 .192.087.192.193 0 .106-.086.192-.19.192-.968 0-5.57-.012-8.923-.062-1.873-.028-3.334-.072-3.507-.138-1.36-.526-1.453-1.14-1.22-1.744.08-.21.202-.407.317-.597.156-.255.303-.498.303-.686 0-.57-1.267-.973-7.23-.973M242.887 138.76c-.105-.01-.184-.103-.175-.208.008-.105.1-.184.207-.176 1.9.16 3.48.057 4.762-.024.623-.04 1.178-.076 1.66-.076 2.04 0 2.976.58 2.976 3.75 0 .106-.087.19-.193.19-.106 0-.192-.084-.192-.19 0-2.845-.814-3.367-2.59-3.367-.483 0-1.026.035-1.636.074-1.297.083-2.895.185-4.82.025" fill="#919495"/><mask id="d" fill="#fff"><use xlink:href="#c"/></mask><path fill="#D6D8D8" mask="url(#d)" d="M151.92 81.74h2.082v-2.576h-2.082M147.412 81.74h2.083v-2.576h-2.083M151.92 90.614h2.082v-2.578h-2.082M46.845 69.105h2.424v-3.528h-2.425M40.086 69.105h2.423v-3.528h-2.424M40.086 62.074h2.423v-3.528h-2.424M18.302 51.823h2.083v-2.578h-2.083M23.765 45.68h2.083v-2.578h-2.083M58.765 55.942h2.423v-3.528h-2.423M58.765 69.73h2.423V66.2h-2.423M64.638 62.767h2.423V59.24H64.64M188.96 129.918h2.083v-2.578h-2.083M184.044 137.426h2.083v-2.577h-2.083M174.135 131.35h2.083v-2.577h-2.083M26.184 79.285h2.423v-3.528h-2.423M59.073 78.113h2.424v-3.528h-2.424M40.086 75.964h2.423v-3.527h-2.424M13.34 93.016h2.082v-2.578H13.34M13.34 87.042h2.082v-2.576H13.34M79.797 71.777h2.424V68.25h-2.423M79.797 84.2h2.424v-3.53h-2.423M73.925 79.012h2.423v-3.528h-2.423"/><path d="M5.484 94.765c-.106 0-.19-.088-.19-.193.002-.106.088-.19.194-.19.244.003.48.01.71.02 1.637.052 2.974.096 3.024-1.905l.023-.917c.052-1.992.12-4.65.13-6.697.02-4.284.453-5.44 3.193-5.43 1.03.005 2.387.186 4.193.426l.706.093h.004l.013.002c.422.056.78.103 1.074.104 1.074.005 1.367-.7 1.385-4.425 0-.105.086-.19.192-.19.106 0 .19.086.19.192-.018 4.046-.392 4.812-1.77 4.805-.318 0-.686-.05-1.12-.107l-.013-.002h-.004l-.705-.094c-1.792-.24-3.14-.418-4.143-.423-2.41-.01-2.79 1.065-2.81 5.048-.008 2.055-.077 4.713-.13 6.704l-.022.916c-.06 2.387-1.57 2.338-3.42 2.277-.23-.007-.468-.015-.7-.018" fill="#919495" mask="url(#d)"/><path d="M115.562 90.187c-13.795-4.702-19.114 7.37-19.114 18.464 0 5.058 1.206 26.324-6.227 27.413-3.762.552-11.644 2.458-4.77 6.755 9.79 6.118 14.497 5.657 26.395 3.804 6.217-.97 14.353-6.368 17.362-12.35 4.21-8.37 3.47-19.2 1.51-28.067-2.773-12.552 3.218-10.013-6.294-10.758-.383-.03-7.586-4.824-8.86-5.26" fill="#FCE6EC" mask="url(#d)"/><path d="M139.556 175.56c-3.565 5.278-24.975 15.914-31.16 8.905-12.5-14.166 24.856-33.71-10.225-28.658-15.363 2.214-45.04 13.904-41.96 33.39.826 5.212 5.388 6.493 11.665 6.243-.65 12.62 8.463 20.005 17.067 10.03 1.234-1.43 7.777-8.672 9.794-13.436 1.056-.062 2.098-.097 3.118-.097 20.423 0 17.81-1.773 34.68-7.754 14.533-5.15-2.047 4.86 7.188 4.86 1.26 0 2.566-.456 4.004-1.19 1.808.752 1.5 5.233 5.892 10.265 4.8 5.496 10.573 4.756 15.244 0 3.497-3.56 5.773-1.41 5.773-11.69 0-4.112-.376-7.23-1.405-9.27.556-.07 1.122-.132 1.7-.184 3.626-.33 7.303-1.817 3.31-5.88-2.103-2.14-11.647-1.89-11.923-9.64-.256-7.22-2.448-18.59-5.687-25.028-1.596-3.173-2.847-6.117-1.78-8.555.58-1.322.652-14.134-10.227-7.124-9.396 6.055 1.837 7.066 2.74 10.31 3.137 11.28 1.117 25.617-2.766 36.366-.72 1.994-3.546 6.762-5.04 8.14" fill="#FCE6EC" mask="url(#d)"/><path d="M52.907 216.155c8.187 2.552 21.12 2.605 35.056 2.508 29.04-.202 63.21-2.785 76.89-3.69 39.36-2.6-146.542-9.602-111.946 1.182" fill="#E2E2E1" mask="url(#d)"/><path d="M98.106 190.942c-.177.002-.32-.14-.323-.315-.002-.175.14-.32.315-.323l.72-.005c5.588-.032 29.37-.166 43.315-9.3.148-.096.346-.055.443.093.097.148.056.347-.092.444-14.098 9.235-38.038 9.37-43.664 9.4l-.714.005M55.257 185.676c.176-.007.324.13.332.307.005.176-.132.324-.308.33-1.402.058-2.77.186-4.124.31-1.205.113-2.4.225-3.602.286.282.432.99 1.472 1.617 2.44.446.69.86 1.326 1.073 1.683.334-.024 1.34-.12 2.375-.218 1.186-.11 2.413-.227 2.806-.243.176-.007.324.13.332.307.006.175-.13.323-.307.33-.38.016-1.594.13-2.768.24-1.13.107-2.224.21-2.578.218-.03.004-.06.003-.09 0l-.02-.003c-.085-.02-.164-.074-.21-.158-.15-.27-.626-1.004-1.148-1.81-.693-1.072-1.467-2.268-1.728-2.854-.06-.055-.1-.134-.103-.22 0-.037.004-.074.015-.107.04-.127.154-.22.292-.225 1.334-.054 2.656-.177 3.99-.3 1.365-.128 2.744-.256 4.155-.314M59.696 203.706c.106.002.19.088.188.194 0 .106-.09.19-.194.188-1.852-.032-3.812.183-5.634.382-1.722.188-3.323.364-4.62.308-.104-.005-.186-.094-.182-.2.004-.106.095-.188.2-.184 1.264.056 2.853-.12 4.56-.305 1.833-.2 3.8-.416 5.682-.384M113.15 146.032c-.177-.018-.304-.176-.286-.35.017-.175.174-.304.35-.286 13.54 1.43 14.725 6.274 13.988 13.248-.114 1.086-.275 2.21-.44 3.378-.36 2.527-.752 5.274-.766 8.187.193.122.606.292 1.076.465.844.31 1.835.6 2.164.656.174.03.29.195.262.37-.03.173-.195.29-.37.26-.356-.06-1.402-.365-2.277-.685-.614-.225-1.163-.47-1.378-.667-.072-.06-.117-.148-.117-.247 0-3.005.403-5.83.773-8.428.167-1.17.327-2.295.44-3.353.695-6.597-.447-11.18-13.42-12.548M43.727 154.56c-.124-.125-.123-.327.003-.45.126-.124.328-.122.452.003 2.008 2.038 5.33 5.547 8.597 9.004 4.755 5.03 9.405 9.946 9.547 9.952.177.006.313.156.306.33-.007.178-.157.314-.333.307-.4-.018-5.14-5.028-9.986-10.152-3.265-3.452-6.58-6.958-8.587-8.994" fill="#101417" mask="url(#d)"/><path d="M76.805 171.458c5.245-3.792 5.987-.084 4.116 2.446-3.053 4.133-3.04 6.547-2.573 8.164 2.554 8.833-22.276 4.38-1.542-10.61m10.154-5.653c-4.938.995-2.344 5.954 4.783 2.856 3.58-1.554-1.272-3.564-4.784-2.855" fill="#FEFEFE" mask="url(#d)"/><path d="M97.668 149.032c-4.004-.365-11.623.112-15.045 2.02-4.163 2.32.876 2.42-3.906 4.438-.69.29-4.555 6.456 6.484 2.257 4.953-1.882 26.684-2.257 27.248-5.086 1.33-6.685-9.346-.825-14.675-3.598l-.105-.03z" fill="#D0CDCE" mask="url(#d)"/><path d="M99.887 149.03c.173-.033.34.08.376.252.034.172-.078.34-.25.375-1.3.263-2.89.564-4.59.762-1.716.2-3.55.3-5.327.156-3.506-.28-5.853.27-7.29 1.215-.812.536-1.33 1.195-1.598 1.898-.267.697-.29 1.442-.116 2.148.252 1.012.91 1.947 1.84 2.56.15.1.188.298.092.444-.098.147-.296.188-.443.09-1.065-.703-1.82-1.776-2.108-2.94-.206-.83-.177-1.706.138-2.53.314-.82.912-1.587 1.845-2.2 1.546-1.02 4.03-1.616 7.692-1.322 1.732.14 3.524.042 5.202-.154 1.69-.197 3.26-.494 4.537-.753m10.965 5.93c-.15.09-.347.04-.436-.113-.09-.152-.038-.348.114-.436.237-.138.517-.468.752-.91l.01-.016c.224-.43.396-.953.434-1.5.038-.544-.056-1.114-.362-1.638l-.01-.02c-.276-.46-.72-.89-1.387-1.244-.156-.082-.216-.276-.134-.432.082-.156.276-.215.432-.134.78.414 1.305.928 1.637 1.484l.016.024c.377.645.493 1.342.446 2.004-.045.644-.246 1.256-.508 1.755l-.008.018c-.288.544-.66.966-.996 1.16M122.36 143.986c-.158.076-.35.01-.426-.15-.077-.158-.01-.35.15-.426 5.544-2.677 8.317-1.59 9.58 1.02 1.813 3.756.307 10.717-.358 13.792-.123.57-.215 1-.255 1.2.303.094.637.16.973.193.392.038.783.03 1.123-.04.173-.034.34.078.375.25.035.173-.077.342-.25.377-.403.08-.857.092-1.307.048-.466-.045-.935-.15-1.337-.298-.094-.03-.173-.104-.205-.205-.058-.184.067-.766.26-1.66.65-3.01 2.125-9.823.407-13.378-1.103-2.283-3.615-3.193-8.726-.724" fill="#101417" mask="url(#d)"/><path d="M77.74 155.005c-1.436-1.113-5.126.394-5.93 2.88-1.62 5.02 2.157 6.577 5.654 3.352 2.077-1.914.5-6.06.277-6.232" fill="#F7BFD7" mask="url(#d)"/><path d="M80.508 155.465c.176-.008.324.13.332.306.006.177-.132.326-.307.333-.13.005-.316 0-.534-.005-.335-.008-.755-.018-1.16.005-.636.036-1.232.14-1.215.442.043.75.11 1.44.177 2.1.072.72.14 1.403.168 2.088.007.176-.13.324-.307.332-.176.007-.324-.13-.332-.307-.026-.665-.093-1.34-.163-2.05-.067-.672-.137-1.374-.18-2.13-.046-.817.853-1.058 1.818-1.113.422-.024.86-.013 1.21-.005.203.006.378.01.493.005" fill="#101417" mask="url(#d)"/><path d="M77.363 155.974c.16.074.23.264.156.424-.074.16-.265.23-.425.156-.977-.452-1.794-.24-2.347.298-.275.267-.49.614-.635 1.002l-.01.022c-.14.385-.207.808-.19 1.23.037 1.035.59 2.065 1.834 2.502.167.058.255.24.197.407-.058.166-.24.254-.407.196-1.534-.538-2.217-1.806-2.264-3.083-.018-.502.064-1.008.23-1.47l.01-.027c.174-.472.443-.9.79-1.236.734-.712 1.802-1.002 3.06-.42" fill="#101417" mask="url(#d)"/><path d="M161.254 148.392c-.9-4.573-7.91 3.32-1.793 8.03 3.304 2.54 1.983-7.07 1.794-8.03" fill="#FEFEFE" mask="url(#d)"/><path d="M152.345 128.367c-.076-.16-.01-.35.15-.425.16-.076.35-.01.426.15 2.318 4.834 6.036 12.63 8.378 20.107 2.366 7.554 3.325 14.803.05 18.45-.118.13-.32.143-.45.026-.132-.118-.143-.32-.026-.45 3.088-3.44 2.122-10.472-.184-17.836-2.33-7.443-6.035-15.208-8.343-20.023" fill="#101417" mask="url(#d)"/><path d="M160.563 147.57c.174-.026.338.093.365.266.027.175-.09.338-.265.365-1.44.23-2.158 1.235-2.354 2.368-.095.545-.073 1.12.047 1.654.118.532.33 1.024.615 1.408.458.617 1.114.95 1.864.68.166-.058.35.03.41.195.058.167-.028.35-.195.41-1.06.378-1.97-.066-2.59-.904-.338-.456-.59-1.032-.726-1.65-.138-.615-.164-1.275-.055-1.9.237-1.382 1.117-2.608 2.883-2.89M113.194 142.225c-.066-.163.014-.35.177-.415.165-.066.35.014.417.178.183.452.36 1.184.33 1.926-.026.6-.185 1.212-.58 1.706-.395.497-1.017.867-1.96.972-.888.1-2.073-.035-3.643-.526-.168-.052-.262-.232-.21-.4.052-.17.232-.263.4-.21 1.48.462 2.576.592 3.383.5.75-.083 1.235-.362 1.53-.734.3-.375.42-.856.44-1.334.027-.64-.125-1.272-.283-1.663M93.56 138.058c.08-.072.2-.068.273.01.072.077.067.2-.01.27-.548.51-1.516.918-2.54 1.2-1.236.336-2.568.493-3.358.423-.106-.008-.184-.1-.176-.206.008-.106.102-.185.207-.176.754.067 2.033-.086 3.225-.41.972-.267 1.88-.645 2.38-1.11M92.18 142.267c.105-.012.2.063.214.167.013.105-.062.202-.167.215-1.392.17-2.575.157-3.773-.103-1.193-.26-2.397-.765-3.833-1.577-.09-.05-.124-.17-.072-.26.052-.092.17-.125.26-.073 1.4.792 2.57 1.283 3.727 1.534 1.152.252 2.296.264 3.645.097" fill="#101417" mask="url(#d)"/><path d="M71.054 194.243c-2.207 3.3-1.563 11.513 4.617 12.81 6.752 1.418 10.722-2.016 12.42-8.09 1.194-4.272.54-5.815 4.12-7.673 3.78-1.963 2.734-.26 2.778 5.35.053 6.852-5.857 15.33-12.972 16.73-6.637 1.306-12.857-2.218-16.147-7.847-.718-1.227-1.625-11.217 2.574-11.217.416 0 2.456.168 2.61-.063" fill="#D0CDCE" mask="url(#d)"/><path d="M70.286 194.034c.088-.153.283-.205.436-.117.153.09.206.285.117.437-.137.234-.256.5-.36.79-.584 1.646-.627 4.047-.09 6.292.536 2.225 1.64 4.286 3.35 5.274.24.138.49.255.756.35.168.058.254.242.196.408-.06.166-.242.254-.408.195-.3-.107-.59-.242-.865-.4-1.877-1.085-3.077-3.3-3.65-5.68-.566-2.36-.515-4.898.108-6.653.115-.325.25-.626.408-.896M90.273 195.065c0-.176.14-.32.316-.322.176 0 .32.14.32.316.007.484-.008.96-.04 1.423-.233 3.257-1.385 6.295-3.278 8.53-1.907 2.25-4.563 3.687-7.79 3.722-.312.003-.624-.006-.934-.027-.177-.013-.31-.166-.297-.342.013-.176.166-.31.342-.296.306.02.602.03.886.028 3.023-.034 5.515-1.385 7.307-3.5 1.804-2.13 2.903-5.036 3.126-8.16.034-.46.047-.92.043-1.373" fill="#101417" mask="url(#d)"/><path d="M149.183 186.407c0 9.08.936 13.11 10.756 13.11 7.42 0 11.44-15.206 4.213-19.21-2.337-1.294 9.765-6.906 8.536 8.12-.497 6.06-5.102 14.756-12.365 15.577-16.37 1.85-20.38-13.58-13.514-16.42.45-.184 2.373-.858 2.373-1.177" fill="#D0CDCE" mask="url(#d)"/><path d="M163.885 179.153c-.158-.08-.22-.273-.14-.43.08-.158.273-.22.43-.14 1.5.762 2.597 1.91 3.362 3.207.92 1.56 1.36 3.34 1.446 4.916.135 2.49-.3 4.832-1.198 6.84-.915 2.05-2.31 3.754-4.07 4.916-1.375.91-3.12 1.538-4.943 1.71-1.656.16-3.38-.056-4.956-.77-.16-.073-.233-.263-.16-.423.072-.162.26-.234.422-.16 1.47.666 3.083.866 4.634.718 1.717-.163 3.358-.753 4.65-1.61 1.658-1.093 2.974-2.704 3.84-4.643.856-1.917 1.272-4.16 1.142-6.547-.08-1.483-.494-3.157-1.358-4.623-.707-1.2-1.72-2.26-3.1-2.962" fill="#101417" mask="url(#d)"/><path d="M143.773 188.845c.01-.176.163-.31.34-.3.175.012.31.164.298.34-.056.9-.06 1.757-.017 2.572.22 4.112 1.654 7.197 3.767 9.298 2.11 2.096 4.898 3.217 7.83 3.402.54.034 1.083.036 1.626.007 4.156-.22 7.554-2.24 10.033-5.108 1.608-1.863 2.83-4.087 3.62-6.413.79-2.325 1.147-4.75 1.027-7.015-.166-3.136-1.25-5.965-3.366-7.792-.132-.115-.146-.316-.032-.45.116-.133.318-.147.45-.032 2.258 1.948 3.41 4.94 3.587 8.24.125 2.348-.243 4.854-1.058 7.253-.815 2.4-2.08 4.698-3.745 6.626-2.585 2.993-6.136 5.098-10.483 5.33-.57.03-1.14.027-1.7-.008-3.08-.194-6.017-1.377-8.24-3.587-2.22-2.207-3.727-5.434-3.955-9.718-.044-.84-.04-1.724.018-2.645" fill="#101417" mask="url(#d)"/><path d="M75.728 194.14c-1.623 4.195-.39 8.068 4.533 7.903 3.317-.11 8.2-9.018 4.07-9.018-.986 0-8.363.496-8.602 1.116" fill="#D0CDCE" mask="url(#d)"/><path d="M84.616 193.262c-.095-.148-.052-.346.097-.442.148-.095.346-.052.44.097.373.575.487 1.458.432 2.34v.003c-.062 1-.346 2.025-.72 2.6-.096.15-.294.19-.443.094-.147-.095-.19-.293-.094-.44.32-.49.563-1.394.62-2.293.047-.762-.04-1.506-.332-1.958" fill="#101417" mask="url(#d)"/><path d="M79.218 198.745c.955-.652 2.612-2.057 1.732-3.42-2.126-3.295-6.17 6.45-1.732 3.42" fill="#FEFEFE" mask="url(#d)"/><path d="M66.882 195.635c-.1-.035-.153-.144-.118-.243.034-.1.143-.153.243-.12.79.273.665.61.477 1.117-.164.443-.398 1.075.407 2.032.403.477.098.978-.24 1.533-.44.72-.948 1.557.587 2.414.69.383.332 1.06-.047 1.777-.188.358-.383.73-.422 1.04-.05.404.216.74 1.282.87.893.11.83.64.763 1.23-.015.133-.03.27-.03.39-.004.464.228.89 1.695.898.695.005.94.61 1.18 1.216.1.25.2.497.326.678.248.355.66.47 1.607-.19.562-.39.907-.083 1.376.336.398.356.905.81 1.766.854.227.01.61-.235 1.022-.502.45-.29.936-.605 1.394-.69.975-.18 1.796.243 2.47.59.34.173.64.327.876.358.37.048.64-.27.802-1.517.074-.567.626-.62 1.337-.69.618-.06 1.378-.134 1.954-.607.23-.19.333-.68.438-1.197.073-.354.15-.72.276-1.04.29-.722.59-.706.86-.692h.006c.204.01.372 0 .5-1.875.04-.598.312-.873.642-1.206.498-.505 1.15-1.163 1.18-3.644 0-.018.003-.034.008-.05.005-.022.015-.042.028-.06.03-.048.077-.098.14-.163.413-.44 1.774-1.887 1.284-3.64-.028-.102.03-.208.134-.236.102-.027.208.032.236.134.547 1.96-.926 3.528-1.377 4.006-.04.045-.066-.054-.066.01v.002c-.034 2.638-.748 3.36-1.294 3.91-.275.278-.5.506-.53.964-.155 2.26-.493 2.252-.903 2.23h-.006c-.14-.006-.297-.014-.483.452-.114.288-.187.637-.256.975-.12.584-.234 1.14-.57 1.416-.666.546-1.49.627-2.16.692-.54.052-.96.094-.995.36-.2 1.54-.623 1.926-1.23 1.845-.303-.04-.63-.207-1-.397-.623-.32-1.38-.708-2.227-.552-.383.07-.837.363-1.257.635-.463.298-.89.574-1.24.562h-.008c-.994-.052-1.56-.556-2-.952-.34-.303-.59-.525-.902-.307-1.2.836-1.768.627-2.14.095-.153-.22-.26-.488-.366-.754-.195-.486-.39-.974-.828-.976-1.797-.01-2.08-.62-2.078-1.283 0-.15.02-.293.034-.43.045-.39.086-.745-.428-.807-1.363-.166-1.692-.674-1.616-1.298.046-.38.258-.783.463-1.17.29-.55.562-1.065.2-1.267-1.883-1.05-1.262-2.07-.728-2.948.263-.432.5-.82.276-1.087-.95-1.13-.67-1.88-.474-2.412.106-.287.176-.477-.242-.62" fill="#101417" mask="url(#d)"/><path d="M65.838 194.172c.04-.172.212-.28.384-.24.172.04.28.213.24.384-1.773 7.524.2 12.795 3.784 15.7 1.878 1.52 4.202 2.398 6.66 2.61 2.467.215 5.07-.24 7.492-1.378 5.446-2.56 10-8.58 10.16-18.27.003-.176.148-.317.325-.314.175.003.316.148.313.324-.164 9.972-4.884 16.186-10.528 18.838-2.53 1.188-5.242 1.662-7.816 1.44-2.582-.224-5.027-1.15-7.01-2.754-3.76-3.05-5.842-8.54-4.004-16.34" fill="#101417" mask="url(#d)"/><path d="M98.163 160.634c-28.012-.46-51.38 38.083-16.663 28.194 6.196-1.764 9.616-6.628 11.023-12.843 4.057-17.928 21.63 6.002-7.967 14.643-13.094 3.822-29.896 2.95-25.725-7.228 7.473-18.228 26.323-24.496 36.32-25.13 8.615-.55 10.17 2.482 3.013 2.364" fill="#F7BFD7" mask="url(#d)"/><path d="M108.264 169.132c.003.092.004.184.005.278.056 12.57-7.38 19.045-17.132 22.22-9.676 3.15-21.635 3.032-30.76 2.412-1.133-.077-2.08-.316-2.854-.693-1.468-.717-2.31-1.92-2.618-3.466-.298-1.5-.083-3.324.56-5.333l.006-.015c.95-2.96 2.83-6.336 5.358-9.68 6.775-8.96 14.142-13.844 22.43-16.612 8.27-2.76 17.436-3.41 27.85-3.896 1.932-.09 2.9.232 3.285.962.377.71.14 1.733-.32 3.097-.424 1.263-1.288 3.107-2.36 5.083-1.028 1.888-2.246 3.9-3.45 5.642m-44.974 14.15c-.072.16-.263.23-.423.155-.16-.074-.23-.264-.156-.424 4.233-9.106 14.643-16.752 24.413-20.335 3.81-1.397 7.53-2.18 10.757-2.192 3.266-.012 6.033.764 7.893 2.488 1.318 1.223 2.175 2.912 2.422 5.122 1.043-1.562 2.074-3.285 2.958-4.912 1.056-1.944 1.903-3.75 2.316-4.98.405-1.207.628-2.09.36-2.597-.26-.49-1.048-.7-2.69-.623-10.364.486-19.485 1.13-27.677 3.865-8.17 2.727-15.434 7.547-22.123 16.392-2.49 3.29-4.336 6.604-5.262 9.492l-.004.012c-.61 1.906-.817 3.622-.54 5.015.268 1.348 1 2.394 2.27 3.014.702.342 1.57.56 2.616.63 9.068.617 20.942.736 30.52-2.382 9.502-3.094 16.745-9.393 16.69-21.61-.012-2.672-.85-4.634-2.293-5.97-1.732-1.606-4.348-2.33-7.455-2.318-3.147.013-6.793.78-10.54 2.155-9.634 3.533-19.893 11.054-24.05 20" fill="#101417" mask="url(#d)"/><path d="M102.255 172.74c-.007-.177.13-.326.307-.333.176-.006.325.13.332.307.047 1.162-.156 2.472-.614 3.637-.412 1.048-1.033 1.986-1.866 2.612-.14.104-.34.076-.447-.065-.106-.14-.077-.34.064-.446.732-.547 1.282-1.386 1.654-2.332.427-1.084.616-2.3.57-3.38M96.48 181.8c-.006-.176.13-.324.307-.332.177-.006.325.13.332.307.05 1.224-1.592 2.725-3.726 4.097-3 1.93-7.022 3.665-8.494 3.92-.174.03-.34-.087-.37-.262-.03-.173.088-.34.262-.368 1.415-.245 5.318-1.938 8.256-3.828 1.96-1.26 3.472-2.58 3.433-3.534" fill="#101417" mask="url(#d)"/><path d="M154.373 166.424c-8.01 2.823-7.234 11.74-24.01 18.58-13.547 5.527-26.094 1.52-18.908 1.52 17.773 0 33.163-11.075 42.048-25.903 4.91-8.198 12.394 1.743.87 5.804M170.965 173.104c-2.112-3.138-10.33-2.69-13.6.287-4.347 3.956-3.387 6.843-9.803 9.52-1.63.68-1.108 2.694 4.825-.453 5.442-2.89 11.173-6.85 17.437-6.674.642.02 2.025-1.365 1.14-2.68" fill="#F7BFD7" mask="url(#d)"/><path d="M165.498 170.277c.152.09.202.286.112.438-.09.152-.286.202-.438.113-.338-.2-.714-.41-1.1-.55-.367-.135-.746-.21-1.114-.158-.175.023-.336-.1-.36-.273-.024-.174.098-.336.272-.36.487-.07.967.023 1.42.19.435.158.842.385 1.208.6M160.234 170.1c.175-.026.337.096.36.272.025.174-.097.336-.272.36-3.558.503-5.273 3.016-6.933 5.447-1.06 1.552-2.098 3.073-3.586 4.08-.146.1-.345.06-.443-.084-.098-.146-.06-.344.086-.443 1.384-.937 2.39-2.41 3.415-3.913 1.74-2.547 3.534-5.178 7.374-5.72M148.37 186.4c.074-.16.264-.23.424-.156.16.073.23.263.157.423-.483 1.053-.607 2.615-.395 4.285.208 1.635.74 3.362 1.578 4.808.088.152.036.348-.117.436-.153.09-.348.037-.436-.116-.88-1.52-1.44-3.333-1.66-5.05-.225-1.78-.083-3.468.45-4.63" fill="#101417" mask="url(#d)"/><path d="M154.002 186.2c-1.622 4.195-.352 8.527 4.534 7.903 6.75-.862 6.602-7.22 2.824-10.017-2.533-1.876-6.056-1.252-7.358 2.115" fill="#D0CDCE" mask="url(#d)"/><path d="M156.585 184.266c-.158.08-.35.014-.428-.143-.08-.157-.016-.35.142-.427 1.446-.724 2.708-.88 3.756-.67.93.186 1.69.66 2.264 1.28.568.613.952 1.373 1.135 2.14.222.924.152 1.868-.234 2.592-.082.155-.275.213-.43.13-.157-.082-.215-.276-.132-.43.31-.585.362-1.367.176-2.146-.16-.664-.49-1.323-.983-1.853-.484-.527-1.13-.928-1.92-1.086-.92-.184-2.04-.04-3.345.612" fill="#101417" mask="url(#d)"/><path d="M157.492 189.316c.956-.65 2.612-2.057 1.733-3.42-2.126-3.295-6.17 6.45-1.733 3.42" fill="#FEFEFE" mask="url(#d)"/><path d="M160.842 185.914c-.052-.168.042-.348.21-.4.17-.053.348.04.4.21.558 1.793.423 3.177-.174 4.267-.593 1.085-1.633 1.858-2.892 2.445-.16.075-.35.005-.424-.154-.075-.158-.005-.348.154-.423 1.145-.534 2.082-1.223 2.6-2.17.517-.943.627-2.163.126-3.773" fill="#101417" mask="url(#d)"/><path d="M146.248 174.546c-4.364 5.972.173 4.62 4.396 1.298 12.42-9.77.882-8.522-4.396-1.298" fill="#FEFEFE" mask="url(#d)"/><path d="M151.133 185.35c-4.802 3.075-8.732 5.593-15.613 4.59-.108-.015-.206-.086-.25-.194-.067-.163.01-.35.174-.417 2.727-1.127 4.664-4.708 6.826-8.702 3.31-6.12 7.137-13.19 15.263-14.338 3.68-.52 8.587.23 12.418 2.37 3.106 1.736 5.516 4.382 6.03 8.005.005.043 0 .09-.01.134-.05.17-.23.265-.398.216-.343-.1-3.172.354-4.488.565l-.62.1c-9.446 1.335-14.787 4.757-19.33 7.67m-14.51 4.08c6.034.588 9.716-1.77 14.163-4.62 4.6-2.946 10.002-6.408 19.59-7.764.12-.017.327-.05.608-.096 1.117-.18 3.293-.528 4.3-.57-.59-3.207-2.81-5.578-5.645-7.162-3.71-2.07-8.457-2.8-12.02-2.295-7.804 1.103-11.547 8.02-14.788 14.008-1.973 3.65-3.765 6.96-6.208 8.5M86.567 153.027c-.102.027-.208-.034-.235-.136-.027-.102.035-.207.137-.234 2.478-.668 4.076-.782 6.18-.933 1.792-.127 3.954-.282 7.342-.83 2.054-.33 4.186-.54 5.877-.396.988.084 1.833.288 2.435.657.632.39.998.953.99 1.736-.002.327-.072.69-.214 1.09-.034.1-.144.152-.244.118-.1-.035-.15-.146-.117-.245.128-.363.19-.683.193-.965.006-.633-.293-1.09-.808-1.406-.547-.335-1.336-.523-2.268-.602-1.66-.14-3.76.064-5.786.392-3.41.55-5.577.706-7.373.835-2.082.148-3.665.262-6.11.92M152.485 132.802c-.06-.086-.038-.207.05-.266.086-.06.205-.038.266.05.633.92 2.487 4.272 3.845 7.134.926 1.95 1.626 3.69 1.566 4.322-.008.105-.1.183-.206.174-.106-.01-.183-.103-.174-.208.052-.554-.63-2.226-1.532-4.125-1.35-2.846-3.188-6.172-3.813-7.08M161.056 157.175c0-.105.086-.192.192-.192.106 0 .192.087.192.192 0 .285.005.602.012.96.022 1.29.052 3.104-.1 3.795l-.003.016c-.014.058-.03.147-.048.246-.128.686-.366 1.97-1.004 2.118-.103.023-.206-.04-.23-.144-.023-.103.04-.206.144-.23.393-.09.6-1.213.713-1.812.02-.1.034-.185.05-.26l.003-.014c.143-.654.112-2.44.09-3.71-.006-.404-.012-.758-.012-.965M149.637 152.874c0-.105.086-.192.193-.192.105 0 .19.087.19.192 0 3.118-.76 6.433-1.948 9.636-1.41 3.797-3.424 7.443-5.49 10.42-3.393 4.892-7.653 8.372-12.482 10.672-5.284 2.518-11.25 3.623-17.505 3.623-.106 0-.192-.086-.192-.192 0-.106.086-.192.192-.192 6.2 0 12.11-1.094 17.34-3.585 4.77-2.273 8.98-5.71 12.332-10.543 2.048-2.95 4.046-6.568 5.445-10.336 1.175-3.163 1.925-6.433 1.925-9.502M109.247 163.798c-.06.087-.18.11-.268.048-.087-.06-.108-.18-.048-.267l.143-.207c1.124-1.612 2.372-3.4 2.372-4.72 0-1.194-1.088-2.03-4.396-2.03-3.877 0-10.092.508-15.696 1.563-4.225.795-8.098 1.9-10.347 3.328-.09.056-.208.03-.265-.06-.057-.09-.03-.207.06-.264 2.29-1.457 6.213-2.578 10.482-3.38 5.63-1.06 11.873-1.57 15.767-1.57 3.6 0 4.782.993 4.782 2.412 0 1.44-1.285 3.282-2.44 4.94l-.145.206zM98.75 173.925c0-.105.085-.192.192-.192.106 0 .192.087.192.192 0 1.512-.65 2.968-1.608 4.263-1.218 1.647-2.94 3.04-4.446 3.962-.046.028-.09.058-.137.09-.18.12-.396.267-.628.31-.104.018-.204-.05-.222-.154-.02-.104.05-.204.153-.223.15-.028.33-.15.482-.252v.002c.057-.038.11-.074.152-.1 1.473-.9 3.152-2.26 4.338-3.862.913-1.234 1.53-2.612 1.53-4.035M89.025 183.818c.086-.06.206-.04.268.046.06.085.04.205-.045.266-2.82 2.017-8.63 3.46-13.408 3.355-1.83-.04-3.516-.308-4.83-.856-1.346-.56-2.31-1.416-2.665-2.622-.278-.947-.176-2.102.423-3.49.507-1.178 1.208-2.235 2.05-3.166.9-.996 1.96-1.85 3.118-2.556.09-.055.21-.027.264.063.055.09.027.208-.064.263-1.128.69-2.16 1.52-3.033 2.485-.814.9-1.49 1.92-1.982 3.06-.56 1.3-.66 2.37-.407 3.232.318 1.082 1.204 1.86 2.443 2.375 1.27.53 2.907.788 4.692.827 4.706.104 10.415-1.31 13.177-3.284M63.707 185.422c0-.106.086-.193.193-.193.106 0 .192.086.192.192 0 3.65 2.804 4.53 6.092 4.53 1.734 0 3.598-.242 5.268-.457.944-.122 1.828-.236 2.582-.294.106-.007.198.072.206.178.008.105-.07.198-.177.205-.766.06-1.635.172-2.563.292-1.688.218-3.57.46-5.316.46-3.495 0-6.477-.954-6.477-4.913" fill="#101417" mask="url(#d)"/><path d="M144.464 181.617c0-.105.085-.192.192-.192.106 0 .192.087.192.192 0 .14-.132.397-.306.734-.356.694-.91 1.768-.69 2.353.21.566 1.216.71 4.013-.335 1.5-.562 3.066-1.597 4.728-2.698 2.014-1.334 4.17-2.763 6.566-3.584l.66-.228.015-.004c2.247-.775 4.55-1.57 6.885-1.927.105-.015.202.057.22.162.014.104-.058.2-.163.217-2.305.353-4.59 1.14-6.817 1.91l-.017.005-.66.228c-2.35.805-4.485 2.22-6.478 3.54-1.68 1.11-3.26 2.16-4.806 2.736-3.074 1.15-4.22.875-4.508.11-.278-.743.322-1.91.71-2.66.148-.29.262-.51.262-.56" fill="#101417" mask="url(#d)"/><path d="M75.625 195.512c-2.34 4.496.728 8.7-1.904 8.48-1.382-.114-3.96-8.563.953-8.563.14 0 .943.098.952.082M151.396 186.167c.44-1.535 1.49.252 1.49 2.212 0 4.388 4.877 7.796.217 7.633-1.4-.05-4.744-5.48-1.83-9.557.102-.144.083-.146.123-.29" fill="#FEFEFE" mask="url(#d)"/><path d="M153.87 186.348c.048-.17.224-.27.394-.223.17.047.27.223.223.392-.616 2.204-.497 3.856.053 4.99.335.693.834 1.192 1.422 1.504.593.316 1.28.444 1.987.393 1.18-.088 2.413-.676 3.364-1.736.12-.13.32-.142.452-.023.13.117.142.32.024.45-1.065 1.187-2.458 1.847-3.796 1.946-.824.06-1.632-.09-2.332-.463-.703-.373-1.3-.97-1.698-1.79-.612-1.266-.755-3.072-.093-5.44M75.576 193.965c.054-.168.234-.26.4-.206.17.053.262.233.208.4-.742 2.312-.71 4.103-.212 5.378.312.8.807 1.395 1.41 1.787.6.392 1.31.583 2.05.575 1.092-.014 2.246-.464 3.215-1.35.13-.12.332-.11.452.02.117.13.108.332-.02.45-1.09.997-2.398 1.503-3.64 1.517-.865.01-1.7-.215-2.407-.677-.71-.463-1.294-1.16-1.657-2.09-.548-1.4-.592-3.34.2-5.805M98.705 145.16c.106 0 .193.085.193.192 0 .105-.087.19-.193.19-.174 0-.367.01-.576.02-.912.04-2.145.092-2.733-.394-.08-.068-.092-.19-.025-.27.067-.082.19-.093.27-.025.475.393 1.623.342 2.47.305.228-.01.437-.02.593-.02" fill="#101417" mask="url(#d)"/><path d="M113.682 83.737c-4 2.86-2.715 3.095-11.218 1.636-4.997-.858-13.107 6.002-9.493 11.496 2.146 3.26 22.174-7.817 24.624-14.433 1.466-3.958-3.723 1.166-3.912 1.3" fill="#F7BFD7" mask="url(#d)"/><path d="M109.9 89.353c-1.366-2.553-3.813-3.193-6.346-2.716-1.9.358-3.852 1.338-5.454 2.613-1.593 1.27-2.833 2.825-3.32 4.345-.504 1.57-.183 3.11 1.434 4.24.144.1.18.3.08.444-.102.143-.3.18-.446.078-1.89-1.32-2.265-3.123-1.676-4.958.526-1.644 1.844-3.307 3.53-4.65 1.677-1.336 3.73-2.363 5.734-2.74 2.78-.525 5.47.183 7 2.99 4.533-3.027 8.373-6.054 8.534-7.82.016-.176.172-.305.347-.29.176.016.305.172.29.347-.32 3.51-12.748 10.898-19.56 14.946h-.002l-1.394.83c-.15.09-.346.04-.435-.112-.09-.15-.04-.346.11-.436l1.395-.83c2.845-1.69 6.68-3.972 10.18-6.28M73.307 199.63c.106 0 .192.084.193.19 0 .105-.083.192-.19.193-5.225.072-10.924.82-16.88 1.603-6.53.858-13.37 1.756-20.252 1.85-.106.002-.193-.083-.195-.188 0-.105.084-.193.19-.194 6.858-.094 13.687-.992 20.208-1.847 5.966-.784 11.676-1.534 16.927-1.606M141.33 194.17c.176-.006.323.134.326.31.005.176-.135.322-.312.327-3.05.08-7.728.507-12.235 1.153-3.797.543-7.467 1.242-9.93 2.02-.168.052-.348-.04-.4-.21-.054-.168.04-.348.208-.4 2.494-.788 6.202-1.495 10.03-2.044 4.525-.647 9.232-1.076 12.312-1.157M140.273 197.09c.174.032.29.198.258.37-.03.175-.196.29-.37.26-.266-.05-1.238.075-2.395.26-1.806.29-4.04.733-4.802.91-.172.04-.344-.067-.384-.238-.04-.172.066-.345.237-.384.763-.178 3.012-.624 4.85-.918 1.216-.195 2.262-.322 2.606-.26" fill="#101417" mask="url(#d)"/><path d="M23.56 186.878c-6.413-1.786-7.65 13.51 4.015 8.558 2.992-1.27.62-3.854.966-7.26.272-2.667-3.748-.954-4.98-1.298m13.074-2.653c-4.944 1.267-6.045 6.61-.648 7.928.735.18-1.306 6.932 5.712 4.234 2.54-.977-.79-1.247 2.237-2.325 3.898-1.388.443-4.98.443-7.305 0-3.174-4.862-3.27-7.744-2.532m-23.582 4.246c-2.805-3.188-12.02 1.9-5.804 5.61 1.834 1.094 7.983-.078 5.944-5.48-.038-.1-.018.01-.14-.13" fill="#FEFEFE" mask="url(#d)"/><path d="M41.662 189.932c-.1.04-.21-.01-.25-.107-.037-.098.01-.21.11-.248 1.49-.594 2.09-1.56 2.12-2.518.024-.68-.238-1.364-.67-1.91-.432-.548-1.033-.958-1.692-1.096-.908-.19-1.934.143-2.79 1.36l-.023.062c-.038.1-.15.15-.248.11-.1-.037-.15-.148-.112-.247l.03-.08v-.002l.002-.005c.006-.014.013-.028.022-.04.962-1.38 2.143-1.754 3.195-1.534.75.155 1.43.618 1.915 1.232.486.614.78 1.385.754 2.16-.035 1.1-.705 2.2-2.364 2.86M37.858 186.84c.086.06.106.182.045.268-.063.086-.182.106-.27.044-1.145-.82-2.276-.745-3.12-.215-.425.266-.78.648-1.03 1.086-.25.438-.392.935-.398 1.432-.01.98.527 1.974 1.877 2.555.097.042.142.155.1.252-.448 1.04-.553 1.913-.41 2.603.116.554.393.99.78 1.302.392.315.897.504 1.463.56.85.08 1.834-.138 2.778-.686.09-.052.21-.02.262.07.053.092.022.21-.07.262-1.016.59-2.08.825-3.006.735-.642-.062-1.218-.28-1.668-.642-.455-.365-.78-.876-.915-1.523-.15-.723-.06-1.615.36-2.658-1.388-.663-1.945-1.752-1.934-2.832.005-.564.167-1.124.448-1.618.28-.493.68-.92 1.16-1.222.966-.606 2.253-.698 3.548.228M43.677 190.62c-.088-.058-.114-.177-.056-.266.058-.09.178-.114.266-.056.72.468 1.094 1.28 1.18 2.107.05.475.005.96-.124 1.386-.13.438-.35.82-.645 1.086-.328.293-.742.442-1.23.364-.105-.015-.176-.114-.16-.218.016-.104.114-.176.218-.16.363.057.673-.053.916-.272.24-.215.423-.537.534-.91.115-.38.155-.812.112-1.236-.076-.723-.396-1.427-1.01-1.825M25.426 197.1l.22.154c-.02-.102-.118-.17-.22-.153m1.517-6.288c-.06.088-.18.11-.267.05-.088-.06-.11-.178-.05-.266 1.02-1.494 1.193-2.537.9-3.204-.23-.517-.75-.817-1.374-.928-.65-.115-1.407-.03-2.068.224-.943.364-1.688 1.07-1.62 2.01.007.107-.073.2-.178.206-.03.003-.062-.003-.09-.015-.544-.235-1.042-.04-1.403.378-.18.21-.33.472-.438.767-.11.3-.176.63-.19.965-.042 1.008.385 2.083 1.543 2.58.097.042.142.156.1.253-.224.522-.277.992-.2 1.402.072.368.248.69.498.96.255.276.59.5.968.662.7.302 1.55.397 2.347.245h.006c1.52-.292 2.258-1.01 2.462-1.83.1-.407.073-.84-.05-1.26-.128-.43-.355-.842-.65-1.2-.708-.86-1.81-1.4-2.88-1.052-.1.033-.208-.022-.24-.123-.033-.1.022-.21.122-.242 1.236-.4 2.494.204 3.293 1.173.33.397.58.858.722 1.334.143.484.173.987.055 1.46-.238.955-1.064 1.79-2.756 2.114l-.01.002c-.874.167-1.804.062-2.572-.27-.425-.18-.803-.435-1.097-.752-.297-.322-.508-.708-.592-1.15-.083-.435-.044-.922.154-1.45-1.203-.603-1.65-1.772-1.605-2.87.016-.378.09-.748.212-1.08.124-.34.298-.645.508-.89.412-.473.96-.723 1.578-.57.065-.995.868-1.73 1.865-2.115.726-.278 1.557-.372 2.274-.244.743.133 1.37.504 1.657 1.152.343.78.172 1.952-.934 3.574M11.717 192.345c-.1-.038-.148-.15-.11-.25.04-.096.15-.146.25-.107.54.21.88 0 1.034-.39.135-.343.147-.812.043-1.284-.103-.475-.323-.945-.65-1.284-.652-.677-1.764-.816-3.286.65-1.613 1.55-1.134 3.207-.034 4.35.508.527 1.147.948 1.775 1.202.614.25 1.214.34 1.66.213.615-.176.94-.805.58-2.067l-.003-.013c-.094-.036-.144-.14-.112-.238.034-.1.14-.154.242-.122.074.025.124.057.165.106l.005.007c.034.042.053.087.07.145l.003.01c.435 1.528-.02 2.307-.844 2.542-.53.15-1.22.054-1.91-.225-.676-.275-1.362-.727-1.907-1.295-1.236-1.283-1.773-3.145.044-4.893 1.73-1.664 3.04-1.46 3.83-.638.377.393.63.93.748 1.47.118.54.102 1.09-.06 1.503-.232.594-.737.92-1.53.608M28.538 203.7c.106 0 .19.11.188.246 0 .134-.09.24-.195.238l-3.8-.083c-.106 0-.19-.11-.19-.245.002-.134.09-.24.196-.238l3.802.082z" fill="#101417" mask="url(#d)"/><path d="M126.713 108.076c-2.62-3.748-11.027-3.142-6.816 11.02 1.41 4.745-4.705 10.205 10.5 9.35 5.057-.284 2.992-16.284.77-20.03-.776-2.065-3.357-3.358-4.454-.34" fill="#FEFEFE" mask="url(#d)"/><path d="M124.59 96.643c-.174.033-.34-.082-.373-.255-.032-.174.08-.34.255-.373 1.223-.232 2.53-.698 3.68-1.204 1.612-.707 2.9-1.483 3.23-1.817.123-.126.325-.128.45-.004.07.068.103.16.096.252-.153 1.94-1.077 4.033-2.467 5.682-1.294 1.537-3 2.696-4.874 3-.175.028-.338-.09-.367-.264-.03-.173.09-.338.263-.366 1.714-.28 3.287-1.353 4.49-2.78 1.13-1.342 1.933-2.99 2.22-4.587-.64.42-1.64.967-2.782 1.47-1.187.522-2.542 1.002-3.82 1.246M117.992 98.382c.074.16.003.35-.157.424-.16.074-.35.004-.424-.156-.08-.176-.264-.278-.51-.32-.372-.062-.866.01-1.385.18-.537.175-1.09.453-1.567.794-.723.52-1.258 1.178-1.234 1.818.006.175-.132.323-.307.33-.177.006-.325-.132-.33-.31-.035-.878.617-1.722 1.5-2.356.528-.38 1.145-.69 1.74-.885.61-.198 1.212-.28 1.69-.2.452.078.806.295.985.682M107.428 88.666c.097.043.142.156.1.252-.043.097-.156.142-.253.1-.53-.23-.987-.42-1.503-.473-.515-.05-1.105.033-1.908.35-.098.04-.21-.01-.248-.107-.04-.098.01-.21.107-.248.868-.344 1.513-.433 2.086-.376.574.058 1.06.26 1.618.502M100.87 89.338c.104-.025.208.037.235.14.025.102-.037.207-.14.232-1.108.277-2.052 1.023-2.733 1.985-.73 1.032-1.155 2.313-1.155 3.537 0 .106-.086.19-.193.19-.106 0-.192-.084-.192-.19 0-1.302.452-2.662 1.226-3.757.73-1.035 1.752-1.837 2.953-2.137" fill="#101417" mask="url(#d)"/><path d="M102.284 113.147c-1.378 7.47-2.71 18.486 5.96 22.484 6.88 3.172-.885-5.302 8.796 2.467 5.546 4.452 5.56-2.687 7.723-.262.034.04 5.926 2.768 5.205-3.46 2.858-.886 10.098 1.55 7.71-4.23-.02-.05 13.35-5.68 5.86-6.79-11.4-1.692-13.18 4.398-28.62-2.564-9.023-4.068-5.844-14.758-12.682-7.85l.048.207z" fill="#F7BFD7" mask="url(#d)"/><path d="M127.5 133.574c-.147-.097-.187-.296-.09-.443.097-.146.295-.186.443-.09 2.415 1.608 3.592 2.848 3.887 3.713.265.78-.06 1.3-.804 1.56-.61.213-1.536.225-2.643.04-3.415-.57-8.73-3.04-11.732-7.285-.1-.143-.067-.342.077-.444.144-.102.343-.067.444.076 2.896 4.09 8.022 6.472 11.32 7.023 1 .168 1.818.164 2.325-.013.37-.13.535-.38.41-.752-.254-.743-1.35-1.863-3.635-3.384" fill="#101417" mask="url(#d)"/><path d="M120.83 135.203c-.142-.106-.172-.306-.066-.447.106-.142.306-.17.448-.066 1.864 1.39 2.762 2.637 2.91 3.535.114.694-.168 1.203-.773 1.464-.52.223-1.298.236-2.262-.014-2.758-.718-7.276-3.654-11.938-10.146-.103-.143-.07-.343.072-.446.144-.103.343-.07.446.073 4.562 6.35 8.93 9.21 11.58 9.9.82.214 1.453.214 1.85.044.31-.134.454-.403.394-.773-.123-.75-.943-1.84-2.663-3.124" fill="#101417" mask="url(#d)"/><path d="M112.74 133.953c-.082-.156-.02-.35.134-.432.157-.08.35-.02.432.136.394.745.51 1.344.403 1.788-.095.39-.344.658-.715.8-.326.127-.746.15-1.234.066-1.32-.224-3.247-1.235-5.197-3.054-.636-.593-1.367-1.314-2.113-2.168-.746-.853-1.506-1.84-2.203-2.964-1.174-1.896-2.586-5.5-2.268-9.294.218-2.602 1.244-5.294 3.705-7.593.13-.12.332-.113.452.016.12.13.113.33-.016.45-2.326 2.175-3.297 4.72-3.503 7.18-.304 3.635 1.048 7.09 2.174 8.905.676 1.09 1.415 2.05 2.14 2.88.726.83 1.44 1.536 2.07 2.12 1.854 1.73 3.654 2.686 4.866 2.892.375.064.682.054.898-.03.17-.065.283-.184.324-.354.07-.296-.03-.743-.348-1.343M99.56 140.404c.105-.007.198.07.206.177.007.107-.073.2-.177.207-.078.006-.237.05-.444.11-.48.138-1.207.346-1.972.346-.105 0-.192-.087-.192-.193 0-.106.087-.192.192-.192.713 0 1.406-.198 1.868-.33.226-.065.4-.115.518-.124M98.686 131.777c.028-.102.134-.162.236-.134.102.028.162.134.134.236-.07.246-.236.693-.424 1.08-.145.296-.307.565-.46.705-.076.072-.198.066-.27-.012-.07-.077-.067-.2.012-.27.112-.104.246-.332.372-.59.18-.37.337-.79.4-1.016M102.434 134.618c.058-.09.177-.113.265-.055.088.058.112.177.054.264-.415.63-.53.72-.793.918-.1.076-.226.17-.398.322-.08.07-.2.06-.27-.018-.07-.08-.062-.203.018-.272.19-.166.317-.262.42-.34.228-.172.327-.247.704-.82M108.356 140.287c.102.03.16.135.132.236-.03.103-.135.162-.237.133-.352-.1-.894-.147-1.394-.09-.387.044-.74.15-.947.337-.08.07-.2.065-.272-.014-.07-.078-.066-.2.013-.272.27-.246.703-.38 1.162-.434.55-.062 1.15-.01 1.544.103M119.378 110.005c-.075-.075-.074-.197 0-.272.076-.074.198-.074.273 0 .832.84.907 1.55 1.007 2.518.023.217.046.446.08.695.016.105-.057.202-.162.217-.105.014-.202-.06-.216-.164-.037-.252-.06-.487-.085-.71-.093-.888-.16-1.54-.897-2.283M121.128 116.817c0-.106.114-.192.255-.192.14 0 .254.086.254.192v.17c0 .622 0 .945-.11 1.63-.018.107-.146.182-.285.17-.14-.014-.24-.11-.222-.215.11-.674.11-.986.11-1.585h-.002v-.17zM123.296 109.34c-.092-.055-.122-.172-.068-.264.054-.09.172-.12.263-.067.096.055.283.204.415.356.11.13.187.272.176.404-.008.105-.1.183-.207.175-.105-.01-.184-.103-.175-.208 0-.014-.035-.063-.084-.12-.103-.12-.247-.235-.318-.278" fill="#101417" mask="url(#d)"/><path d="M132.443 112.486c5.546.39 10.636-.488 15.8-2.44 3.75-1.418 1.19 6.287-2.52 6.407-.12.003 2.44 1.6-1.485 3.394-2.35 1.073-6.978-.67-8.433 1.282-.052.07-.888.482-.962.495-2.148.366-.874-.144-1.113-3.96-.04-.634-1.77-5.213-1.287-5.18" fill="#F7BFD7" mask="url(#d)"/><path d="M133.1 114.105c-.176-.015-.305-.17-.29-.346.017-.176.172-.305.347-.29.333.03.602.057.862.082 3.365.332 5.827.575 14.943-2.195.47-.142.826-.152 1.074-.06.237.086.382.25.444.476.052.184.034.4-.044.637-.176.52-.687 1.206-1.47 1.868-.982.83-2.407 1.655-3.98 2.205-1.35.47-2.81.744-4.2.652-.175-.01-.31-.163-.298-.34.012-.175.164-.31.34-.298 1.298.087 2.674-.17 3.948-.618 1.496-.524 2.85-1.304 3.777-2.09.694-.586 1.135-1.164 1.277-1.583.04-.116.05-.208.035-.267-.004-.018-.02-.034-.048-.044-.124-.045-.343-.028-.67.07-9.238 2.808-11.753 2.56-15.19 2.222-.298-.03-.6-.06-.857-.083" fill="#101417" mask="url(#d)"/><path d="M156.508 116.32c-3.715-.44 1.28 7.06 2.053 3.676.36-1.568-.642-3.51-2.052-3.677m4.974 2.67c2.27 8.894-3.016 11.65-7.91 5.938-6.737-7.86 4.695-18.534 7.91-5.938" fill="#F7BFD7" mask="url(#d)"/><path d="M147.68 117.445l-.297.328c.172-.012.302-.16.298-.328m-2.768-.763c-.176-.01-.31-.163-.3-.34.013-.175.164-.31.34-.297 1.097.072 1.822.284 2.238.582.312.225.468.498.49.805v.013c.017.283-.09.58-.298.87-.4.56-1.22 1.147-2.288 1.64-1.308.603-2.934 1.056-4.503 1.26-1.484.195-2.925.17-4.01-.16-.17-.05-.266-.228-.215-.398.05-.17.23-.265.4-.214.998.3 2.344.323 3.744.14 1.503-.197 3.063-.63 4.317-1.21.968-.445 1.696-.96 2.034-1.43.126-.175.19-.333.18-.465v-.002c-.006-.114-.078-.226-.223-.33-.323-.232-.937-.4-1.905-.464M159.53 121.35c0-.106.086-.192.193-.192.106 0 .192.086.192.192 0 .456-.426.913-.972 1.29-.735.507-1.714.887-2.095.887-.107 0-.193-.086-.193-.192 0-.106.086-.193.193-.193.326 0 1.2-.35 1.877-.817.453-.312.805-.667.805-.975M159.732 124.004c.042-.097.155-.143.252-.1.097.04.143.154.1.25-.022.054-.062.108-.116.157-.275.254-1.112.564-1.95.776-.843.213-1.71.33-2.04.19-.056-.024-.105-.055-.14-.095-.072-.077-.068-.2.01-.27.08-.072.2-.067.27.01l.004.002.006.002c.247.104 1.02-.014 1.798-.21.786-.2 1.554-.476 1.782-.684.014-.014.024-.023.024-.026" fill="#101417" mask="url(#d)"/><path d="M158.03 121.382c-.02-.104.05-.203.155-.22.105-.018.204.05.222.156.17.985.05 2.505-.405 3.77-.366 1.016-.954 1.876-1.79 2.19-.1.037-.21-.014-.248-.113-.037-.1.014-.21.113-.246.716-.27 1.234-1.042 1.565-1.962.434-1.202.548-2.644.387-3.576" fill="#101417" mask="url(#d)"/><path d="M153.63 117.353c-.087.153-.283.207-.436.12-.153-.087-.207-.282-.12-.436.338-.597.75-.99 1.204-1.21.383-.184.793-.243 1.21-.196.4.046.81.19 1.21.418 1.045.592 2.05 1.756 2.717 3.14.648 1.34 1 2.89.885 4.263-.062.72-.252 1.4-.595 1.98-.35.588-.854 1.075-1.538 1.405-.76.366-1.74.536-2.97.432-.176-.015-.307-.17-.293-.346.015-.175.17-.305.346-.292 1.11.095 1.98-.05 2.64-.37.562-.27.977-.67 1.264-1.154.29-.493.454-1.078.507-1.707.108-1.26-.22-2.688-.82-3.932-.613-1.27-1.522-2.333-2.457-2.86-.325-.186-.652-.303-.966-.34-.3-.033-.592.008-.86.138-.34.163-.656.472-.928.95M127.323 108.167c-.042-.097.003-.21.1-.25.097-.044.21.002.252.098l.04.093c.41.95.61 1.41.555 2.598-.005.105-.095.187-.2.182-.106-.005-.188-.094-.183-.2.052-1.1-.136-1.535-.524-2.428l-.04-.093zM128.26 114.827c0-.105.09-.188.195-.187.106.003.19.09.187.197-.007.26.015.545.036.833.054.736.11 1.494-.268 2.153-.052.09-.17.123-.262.07-.09-.052-.124-.17-.072-.26.32-.558.27-1.256.218-1.936-.02-.292-.042-.582-.035-.87M124.9 112.003c-.06-.087-.037-.207.05-.266.088-.06.207-.037.267.05.55.814.54 1.546.532 2.407-.002.08-.003.164-.003.35 0 .105-.087.19-.193.19-.106 0-.192-.085-.192-.19l.003-.353c.01-.796.017-1.472-.466-2.187M125.667 120.623zm-.054-1.295c-.016-.104.055-.202.16-.218.104-.017.202.054.22.16.066.423.098.912.058 1.384v.002c-.035.398-.12.788-.28 1.123-.047.094-.16.135-.256.09-.096-.045-.136-.16-.09-.256.138-.288.213-.634.243-.99v-.002c.038-.443.01-.9-.054-1.294zM131.123 120.625c-.002-.106.103-.194.232-.195.13 0 .24.083.24.188l.006.21c.013.434.038 1.274-.116 1.41-.087.08-.237.085-.334.014-.096-.07-.104-.192-.017-.27.027-.023.006-.763-.005-1.147l-.005-.21zM95.792 98.036c.075-.16.265-.23.424-.154.16.074.23.264.155.424-2.48 5.285-1.537 11.807-.632 18.064.307 2.13.612 4.232.777 6.243.698 8.535-1.056 15.547-15.155 16.906 3.29 3.416 6.662 5.796 10.17 7.33 3.667 1.602 7.49 2.286 11.534 2.27 5.48-.02 10.226-1.082 14.226-2.924 4.326-1.992 7.78-4.898 10.35-8.383.105-.142.305-.174.447-.07.143.105.173.305.07.448-2.634 3.57-6.172 6.548-10.6 8.587-4.078 1.878-8.914 2.96-14.493 2.982-4.13.014-8.038-.685-11.79-2.325-3.745-1.637-7.33-4.21-10.825-7.947-.054-.052-.09-.123-.097-.204-.013-.176.12-.33.294-.344 14.156-1.157 15.91-7.964 15.23-16.277-.165-2-.466-4.087-.773-6.202-.918-6.348-1.875-12.964.688-18.424m28.92-1.897c.116.13.106.332-.024.45s-.333.108-.45-.023c-1.912-2.113-4.105-3.86-6.557-5.055-2.248-1.094-4.715-1.724-7.377-1.74-.177 0-.32-.143-.32-.32.002-.175.146-.318.32-.317 2.77.016 5.33.668 7.66 1.8 2.523 1.23 4.782 3.03 6.748 5.204m9.05 26.563c-.012.175-.166.308-.342.295-.177-.013-.31-.167-.295-.343.24-3.108-.07-6.6-.892-10.115-.8-3.434-2.088-6.89-3.817-10.035-.085-.155-.03-.35.126-.435.154-.085.35-.028.434.127 1.758 3.198 3.066 6.71 3.88 10.197.837 3.578 1.153 7.137.906 10.31" fill="#101417" mask="url(#d)"/><path d="M143.165 128.273c-1.434-1.225-7.622 1.413-3.61 5.84 1.877 2.07 9.345.266 5.41-5.05-.402-.546-1.753-.75-1.8-.79" fill="#BBBDBF" mask="url(#d)"/><path d="M114.93 119.804c-.114-.133-.1-.335.034-.45.133-.116.334-.1.45.033 2.305 2.65 6.073 4.04 10.325 4.695 4.292.66 9.076.565 13.36.254 2.3-.167 3.696.135 4.343.675.575.48.627 1.11.24 1.778-.327.568-1.007 1.166-1.964 1.695-2.84 1.575-8.265 2.645-14.29.638-.167-.054-.258-.235-.203-.402.055-.166.236-.257.403-.202 5.83 1.94 11.053.92 13.78-.59.854-.474 1.45-.987 1.722-1.46.216-.372.2-.716-.1-.965-.53-.44-1.768-.68-3.886-.527-4.325.314-9.155.408-13.503-.26-4.388-.673-8.29-2.125-10.712-4.91" fill="#101417" mask="url(#d)"/><path d="M136.016 130.157c-.174-.03-.288-.197-.257-.37.03-.175.198-.29.372-.258 1.547.285 2.426.767 2.76 1.315.32.525.198 1.077-.282 1.585-.41.432-1.098.835-2 1.147-2.838.986-7.905 1.12-12.816-1.587-.155-.085-.21-.28-.126-.433.085-.155.28-.212.434-.127 4.73 2.607 9.587 2.486 12.302 1.544.8-.278 1.4-.622 1.74-.982.27-.285.353-.57.204-.814-.245-.4-.98-.77-2.332-1.02" fill="#101417" mask="url(#d)"/><path d="M143.807 129.477c-.495-.456-1.18-.738-1.94-.738-.758 0-1.444.28-1.938.737-.49.45-.79 1.07-.79 1.75 0 .684.3 1.303.79 1.752.493.454 1.18.736 1.938.736.76 0 1.444-.282 1.94-.737.486-.45.787-1.07.787-1.752 0-.682-.3-1.302-.788-1.75m-1.94-1.38c.925 0 1.764.347 2.373.91.615.565.996 1.352.996 2.22 0 .87-.38 1.654-.996 2.222-.61.56-1.448.907-2.372.907-.925 0-1.764-.347-2.372-.907-.616-.568-.997-1.353-.997-2.222 0-.868.38-1.655.996-2.22.608-.563 1.447-.91 2.372-.91" fill="#101417" mask="url(#d)"/><path d="M142.168 130.214c-.177.002-.32-.14-.323-.316-.002-.175.14-.32.315-.322h.025v-.002c.388 0 .71.237.936.57.2.297.323.682.334 1.03v.054h.002c0 .596-.287.965-.68 1.15-.18.084-.382.125-.585.128-.197.003-.4-.03-.585-.092-.487-.166-.894-.544-.94-1.065-.015-.177.116-.333.292-.347.176-.015.332.116.347.29.02.24.24.425.506.515.12.04.25.062.37.06.117-.002.23-.024.326-.07.18-.082.31-.265.31-.57v-.034c-.007-.235-.09-.494-.226-.695-.11-.167-.255-.285-.405-.285h-.017zM143.16 122.825l.38-.226c-.168-.04-.335.06-.38.225m.526.798c-.01.175-.162.31-.338.3-.176-.01-.31-.162-.3-.338.015-.248.052-.497.11-.746l.002-.015c.367-1.584 1.554-3.17 3.178-4.32 1.623-1.15 3.69-1.878 5.82-1.746.422.025.847.085 1.27.182.155.034.257.173.25.325 0 .648.105 2.53.537 4.875.266 1.447.656 3.068 1.223 4.677.054.155-.018.325-.164.394-1.35.714-2.998 1.265-4.766 1.672-2 .46-4.16.738-6.214.86-.176.01-.327-.125-.338-.3-.01-.177.125-.328.3-.34 2.02-.117 4.144-.39 6.11-.843 1.614-.372 3.123-.865 4.377-1.494-.53-1.557-.9-3.113-1.157-4.512-.394-2.14-.52-3.92-.542-4.744-.31-.06-.617-.1-.923-.117-1.976-.123-3.9.555-5.412 1.628-1.503 1.065-2.595 2.513-2.926 3.944l-.002.012c-.05.215-.082.43-.094.64M85.65 213.952c-.105 0-.192-.086-.192-.192 0-.106.087-.192.192-.192 3.387 0 6.843-.213 10.413-.432 3.824-.235 7.777-.478 11.893-.478h.697c.106 0 .192.086.192.193 0 .106-.086.192-.192.192h-.697c-4.12 0-8.06.243-11.87.476-3.583.22-7.052.434-10.436.434M91.603 211.636c-.106-.003-.19-.09-.187-.197.003-.107.092-.19.197-.187 1.32.04 3.355-.09 5.494-.228 2.054-.13 4.205-.27 5.92-.27.106 0 .19.088.19.193 0 .106-.084.192-.19.192-1.715 0-3.854.137-5.896.268-2.144.138-4.185.27-5.527.228" fill="#101417" mask="url(#d)"/><path d="M105.718 179.205c.034-.173.203-.285.377-.25.173.033.286.202.25.375-.305 1.537.1 2.786 1.04 3.727 1.05 1.053 2.767 1.743 4.905 2.043 2.173.304 4.773.206 7.552-.322 8.103-1.54 17.698-6.718 22.702-16.14 3.157-5.945 5.14-12.73 5.848-19.565.703-6.792.144-13.63-1.78-19.74-.052-.168.042-.347.21-.4.17-.05.35.043.4.21 1.95 6.192 2.517 13.12 1.806 19.995-.715 6.918-2.724 13.785-5.918 19.8-5.106 9.616-14.89 14.9-23.15 16.468-2.847.54-5.517.64-7.757.326-2.275-.32-4.118-1.07-5.27-2.225-1.093-1.093-1.568-2.536-1.215-4.302M98.046 100.354c.062-.085.182-.104.268-.042.085.063.104.183.04.27-.298.407-.576 1.072-.778 1.77-.215.738-.344 1.508-.33 2.05.004.106-.08.194-.185.196-.104.004-.192-.08-.195-.185-.017-.58.118-1.395.343-2.17.214-.736.51-1.443.838-1.89M96.653 107.67c0-.106.086-.192.19-.192.107 0 .193.086.193.19v.48c-.004 2.482-.006 5.245.67 7.56.03.102-.03.208-.13.237-.102.03-.21-.03-.238-.13-.692-2.367-.69-5.16-.685-7.666v-.48zM103.142 117.37c.024-.104.127-.167.23-.143.103.025.167.128.142.23-.333 1.386-.403 2.748-.214 4.15.19 1.406.642 2.854 1.347 4.412.044.096 0 .21-.096.253-.095.044-.21 0-.253-.095-.72-1.59-1.182-3.075-1.377-4.52-.195-1.45-.124-2.856.222-4.29M110.045 124.79c-.003-.105.08-.194.186-.196.107-.003.195.08.198.186.016.537.398 1.402.89 2.28.716 1.283 1.66 2.578 2.06 2.968.077.073.08.195.005.27-.074.076-.195.078-.27.005-.42-.41-1.397-1.744-2.13-3.057-.518-.925-.92-1.85-.938-2.455M116.462 126.77c-.044-.097 0-.21.096-.253.097-.044.21 0 .253.096.305.682.645 1.278 1.115 1.84.472.56 1.077 1.09 1.91 1.637.09.058.113.178.055.265-.058.09-.176.113-.265.055-.868-.57-1.5-1.124-1.993-1.712-.496-.59-.853-1.216-1.17-1.928M120.727 127.11c-.068-.08-.056-.203.025-.27.082-.067.204-.056.27.026l.047.056.007.01c1.05 1.272 1.776 2.147 3.676 2.365.105.012.18.108.17.212-.012.104-.108.18-.213.168-2.053-.235-2.82-1.158-3.927-2.5l-.01-.01-.046-.057zM107.162 119.193c0-.106.086-.193.193-.193.106 0 .192.087.192.193 0 .146-.003.395-.005.618-.01.95-.014 1.445.295 2.64.026.1-.035.206-.138.233-.103.027-.208-.035-.235-.137-.32-1.242-.315-1.755-.305-2.74 0-.147.002-.304.002-.613M112.715 121.858c.002-.105.09-.19.196-.187.107.003.19.09.19.196-.007.213.068.58.186.99.122.42.29.876.472 1.254.045.095.005.21-.09.255-.095.045-.21.005-.255-.09-.19-.398-.368-.876-.495-1.312-.128-.444-.208-.853-.203-1.105M107.59 111.402c.068-.08.19-.09.27-.02.08.068.09.19.02.27-.367.426-.736.886-1.012 1.454-.274.564-.46 1.24-.466 2.105 0 .107-.087.192-.193.192-.107 0-.192-.087-.192-.192.007-.932.208-1.662.505-2.272.294-.606.682-1.09 1.067-1.536" fill="#101417" mask="url(#d)"/><path d="M162.362 114.63c-.065.084-.185.1-.268.035-.084-.064-.1-.185-.035-.268 1.396-1.808 5.422-4.09 9.11-6.18 2.42-1.37 4.694-2.66 5.96-3.662.084-.066.205-.052.27.03.066.083.05.204-.032.27-1.29 1.022-3.577 2.317-6.008 3.695-3.657 2.073-7.647 4.334-8.998 6.08M165.107 116.176c-.076.073-.198.07-.27-.006-.075-.075-.072-.198.004-.27.06-.057 14.508-6.268 25.89-11.1 6.833-2.9 12.57-5.313 13.436-5.61.1-.035.21.018.245.118.035.1-.018.21-.12.244-.865.298-6.59 2.704-13.41 5.6-11.353 4.82-25.73 10.98-25.773 11.024M164.878 121.358c-.105 0-.192-.086-.192-.193 0-.106.087-.19.192-.19 1.515 0 6.278-.63 11.614-1.425 7.3-1.088 15.66-2.49 18.265-3.033.103-.022.205.045.226.148.022.104-.044.205-.148.227-2.616.546-10.988 1.95-18.287 3.038-5.353.798-10.137 1.428-11.67 1.428M172.405 123.604c-.106 0-.192-.095-.192-.213 0-.116.086-.21.192-.21 1.822 0 3.71.053 5.583.106 1.808.052 3.6.103 5.375.103.106 0 .192.095.192.212 0 .116-.086.212-.192.212-1.724 0-3.546-.052-5.384-.105-1.844-.053-3.703-.106-5.575-.106" fill="#EE4C90" mask="url(#d)"/><path d="M48.693 170.884c.105.002.19.09.188.194 0 .106-.088.19-.194.188-4.474-.08-11.325.21-17.92.816-5.562.508-10.942 1.24-14.56 2.16-.1.025-.206-.037-.232-.14-.026-.103.036-.207.138-.234 3.63-.92 9.033-1.656 14.618-2.168 6.61-.605 13.475-.897 17.963-.816M39.406 166.95c.098-.04.21.007.25.105.04.097-.007.21-.104.25-.417.172-1.833.297-3.502.384-2.536.13-5.683.177-6.764.158-.105-.002-.19-.09-.188-.195 0-.105.09-.19.195-.188 1.072.02 4.206-.027 6.738-.158 1.633-.085 3.004-.204 3.376-.356M48.18 156.308c-.066-.083-.052-.204.03-.27.085-.064.206-.05.27.034 1.236 1.577 2.717 2.92 4.227 4.288 1.773 1.607 3.588 3.25 5.113 5.366.418.58 1.826 1.664 2.748 2.375.5.386.863.667.907.765.042.097-.002.21-.1.252-.096.043-.21 0-.252-.098-.004-.01-.335-.266-.79-.616-.94-.724-2.373-1.828-2.823-2.454-1.503-2.083-3.302-3.713-5.06-5.307-1.523-1.38-3.016-2.733-4.27-4.335M67.24 153.358c-.095-.042-.14-.155-.098-.252.042-.096.155-.14.25-.1.615.266 1.968 1.378 3.278 2.59 1.393 1.29 2.75 2.703 3.128 3.335.054.09.024.208-.067.263-.09.055-.207.025-.26-.066-.362-.602-1.69-1.98-3.06-3.25-1.282-1.187-2.595-2.272-3.17-2.52" fill="#101417" mask="url(#d)"/><path d="M28.027 91.69c-2.79-.573-6.582.813-5.278 5.082 2.288 7.493.832 2.463-1.93 6.274-1.83 2.526 3.163 17.414 5.56 16.446 8.982-3.627 2.47-.958 2.24-12.794-.025-1.276 1.07-2.092.974-5.975-.01-.507 3.16-6.173-.777-8.508-.18-.107-.623-.492-.79-.526M34.978 84.847l.254-.043c-7.91 1.125-3.61 2.333-3.606 5.53 0 .617 2.412 12.395 3.07 12.21 8.24-2.296 5.46-.714 2.91-5.185-2.543-4.46 8.383-14.15-.87-12.397-.582.11-1.596-.13-1.758-.116M54.326 80.886c-1.643-.6-5.7-.45-5.7 2.867 0 .614.81 9.355 1.333 9.355 3.938 0 3.875-5.188 5.74-8.89.982-1.95.2-2.76-1.374-3.332M50.595 98.574c-8.404 0-9.144 1.41-6.54 9.287 1.657 5.003-.737 10.477 7.312 7.967 2.913-.908-3.153-2.293-.485-8.236 1.868-4.16 1.683-5.855-.287-9.016M64.137 89.338c-.892-.404-8.545-1.02-8.688 2.966-.1 2.678 1.094 12.787 4.4 13.246 7.966 1.107 1.79-2.787 3.814-12.773.195-.97.57-3.395.473-3.44M77.445 96.286c-.166-.117-7.744-2.087-8.106 1.09-.195 1.69-.436 14.44.727 14.956.517.23 8.013 1.07 8.013.212 0-4.278-3.882-4.177-.79-9.077 2.792-4.426 1.29-6.372.155-7.18" fill="#FEFEFE" mask="url(#d)"/><path d="M30.132 148.994c.106 0 .19.088.19.193-.002.106-.088.19-.194.19-.83-.012-2.095.235-3.33.475-1.008.197-1.997.39-2.735.44-.105.005-.197-.075-.203-.18-.006-.106.074-.197.18-.205.71-.046 1.688-.237 2.684-.432 1.254-.244 2.538-.494 3.408-.48M78.306 149.16c-.003.268-.007.61.03 1.048.007.094-.026.19-.1.26-.17.16-20.874 2.598-34.236 4.172-5.56.655-9.84 1.16-10.84 1.283-.13.015-.26-.05-.323-.172-.05-.095-.092-1.003-.117-1.56v-.003l-.018-.367V153.807c.048-.666 24.543-3.528 33.566-4.58 1.644-.194 2.765-.325 3.145-.372.712-.087 1.795-.197 2.843-.302 1.252-.125 2.455-.246 2.954-.328l.438-.07c1.346-.22 1.95-.32 2.3-.126l.025.013c.342.21.34.537.333 1.116m-.624.857c-.02-.338-.018-.627-.015-.863.004-.348.006-.545-.03-.566l-.01-.006c-.156-.08-.69.008-1.877.203l-.438.07c-.517.084-1.73.207-2.994.334-1.01.1-2.052.205-2.828.3-.305.04-1.454.173-3.15.37-8.876 1.037-33.004 3.855-33 3.914v.01l.018.373v.004c.015.347.026.82.035 1.09 1.354-.164 5.404-.64 10.535-1.246 12.703-1.496 32.08-3.778 33.754-3.987" fill="#101417" mask="url(#d)"/><path d="M68.223 151.747c-.113-.136-.092-.34.045-.45.136-.112.34-.092.45.045.194.237 1.21 1.22 2.33 2.28 1.51 1.43 3.2 2.996 3.332 3.086.146.1.184.298.084.444-.1.145-.298.183-.444.084-.154-.105-1.883-1.704-3.412-3.152-1.14-1.08-2.177-2.084-2.385-2.337M84.412 156.377c.103.025.166.13.14.232-.024.1-.13.164-.23.14-.486-.12-.777-.662-.867-1.304-.043-.297-.043-.618 0-.927.043-.312.13-.613.264-.865.24-.456.624-.758 1.158-.715.106.008.185.1.176.206-.008.105-.1.184-.207.176-.354-.028-.618.188-.79.51-.11.213-.185.47-.222.74-.038.273-.037.558 0 .82.07.496.266.908.577.985" fill="#101417" mask="url(#d)"/><path d="M76.916 126.335c.013.023 2.968 22.64-5.128 21.945-8.762-.752-7.707 2.66-17.88.925-3.685-.628-18.25 6.085-18.648.324-.027-.4-7.706-21.508-8.823-25.652-.25-.934-.644-1.96.042-2.627-.047 1.932 4.734 1.83 6.752.718 3.01-1.66 2.22 3.122 3.62 1.086 1.286-1.867-4.345-20.357 1.28-16.49 3.435 2.363 3.765-2.5 5.397 3.347 1.096 3.934.84 1.08 1.13 5.918.32 5.406 5.56 5.514 9.612 2.962 1.823-1.147 2.978 6.518 2.55-5.383-.24-6.69.46-.55 5.507-1.94 5.89-1.62 1.25.143 3.905 4.15 1.597 2.408 10.512-2.422 10.512 2.52 0 2.77.17 5.43.17 8.198" fill="#FCE6EC" mask="url(#d)"/><path d="M45.502 138.67c-.006-.105.074-.196.18-.203.105-.006.196.075.203.18.027.423.463 2.874 1.138 4.982.283.885.608 1.708.96 2.286.318.52.646.828.958.767.05-.01.102-.03.155-.06.092-.052.21-.02.26.074.053.092.02.208-.073.26-.086.05-.175.082-.265.1-.502.1-.958-.282-1.36-.942-.37-.604-.707-1.456-1-2.37-.683-2.14-1.127-4.64-1.155-5.074M62.102 145.05c-.105-.013-.18-.108-.167-.214.012-.105.108-.18.214-.167.318.038.618.164.948.3.706.296 1.564.654 3.004.24.1-.03.208.03.237.13.028.102-.032.208-.133.237-1.57.452-2.495.066-3.256-.25-.303-.128-.58-.243-.848-.277M25.265 105.863c-.245.016-.49-.037-.685-.156-.313-.19-.514-.412-.624-.638-.086-.178-.12-.36-.106-.533.012-.173.07-.338.157-.483.122-.2.307-.367.526-.473.155-.075.33-.12.505-.132h.005c.234-.015.474.027.685.13.216.108.402.28.518.518.068.14.113.304.125.49.02.296-.045.542-.164.736-.104.172-.25.302-.417.393-.163.087-.345.136-.525.148m-.485-.484c.126.077.292.11.46.1.127-.008.255-.043.367-.103.108-.06.204-.144.272-.255.08-.13.122-.3.108-.512-.01-.133-.04-.248-.087-.346-.076-.157-.2-.27-.342-.342-.148-.073-.32-.103-.49-.092-.127.01-.255.042-.367.096-.153.074-.28.19-.365.327-.057.095-.094.2-.102.31-.008.11.013.224.068.338.082.166.235.33.48.48" fill="#101417" mask="url(#d)"/><path d="M20.437 107.217c.805 2.434 1.896 5.734 2.77 7.595l1.562-.594c2.372-.902 6.34-2.41 7.757-2.74-.287-1.165-1.186-4.276-2-6.73-.544-1.632-1.026-2.947-1.205-3.11-.42-.125-1.054-.14-1.802-.066-1.473.143-3.352.62-4.924 1.24-1.515.6-2.72 1.308-2.923 1.933-.015.048-.023.095-.024.138.212.592.478 1.397.787 2.334m2.308 8.112c-.915-1.857-2.073-5.36-2.916-7.913-.33-1-.614-1.857-.798-2.363-.01-.025-.014-.05-.017-.076-.014-.145.003-.29.05-.43.268-.826 1.62-1.67 3.295-2.33 1.62-.64 3.565-1.133 5.1-1.282.855-.082 1.594-.06 2.097.105.066.023.12.063.16.116.34.386.87 1.753 1.415 3.392.915 2.752 1.936 6.34 2.095 7.124.034.172-.078.34-.25.375l-.043.005c-.81.054-5.34 1.777-7.94 2.765-1.077.41-1.833.697-1.936.703-.138.01-.26-.07-.313-.19" fill="#101417" mask="url(#d)"/><path d="M21.538 105.132c-.046-.095-.006-.21.09-.257.094-.046.21-.006.256.09.237.485.477 1.41.746 2.445.348 1.344.746 2.876 1.23 3.806.312.596.65.93 1.01.74l.015-.007c.647-.337 1.415-.672 2.195-.922.668-.214 1.35-.367 1.976-.408.106-.006.197.074.203.18.006.106-.074.197-.18.203-.593.04-1.242.185-1.882.39-.762.244-1.51.57-2.14.897l-.01.007c-.613.32-1.11-.104-1.527-.904-.505-.97-.908-2.524-1.262-3.887-.262-1.013-.498-1.92-.72-2.374M23.556 115.072c-.037-.172.072-.343.245-.38.174-.037.345.072.382.245.164.757.568 2.42 1.008 3.564.232.606.436 1.048.53 1.042.288-.018.87-.254 1.65-.57 1.32-.53 3.18-1.282 5.325-1.648.64-.11.752-.684.63-1.4-.16-.932-.688-2.087-1.083-2.95-.163-.356-.305-.666-.39-.89-.062-.164.02-.35.185-.412.166-.063.35.02.413.186.086.223.22.515.373.85.41.898.96 2.1 1.132 3.11.184 1.076-.033 1.945-1.152 2.136-2.082.356-3.902 1.09-5.195 1.612-.833.336-1.457.588-1.85.614-.44.03-.833-.593-1.164-1.45-.46-1.195-.872-2.89-1.038-3.658" fill="#101417" mask="url(#d)"/><path d="M25.488 115.652c-.034-.1.02-.21.12-.243.1-.034.21.02.243.12.08.232.142.49.207.752v.005c.186.755.383 1.55.863 1.52.106-.007.197.073.203.178.007.106-.074.197-.18.204-.797.052-1.035-.902-1.257-1.808l-.002-.008c-.063-.258-.126-.512-.196-.722M27.322 119.234c.023-.104.125-.17.228-.147.104.022.17.124.147.228-.062.288-.008.52.133.7.195.248.55.42.993.528.466.113 1.022.15 1.588.13 1.363-.05 2.773-.435 3.148-.955.062-.085.182-.105.268-.043.086.062.105.182.043.267-.442.612-1.983 1.06-3.446 1.114-.6.022-1.192-.02-1.692-.14-.522-.127-.952-.343-1.204-.665-.21-.27-.296-.607-.206-1.016M42.074 147.502c.103.024.167.128.143.23-.024.104-.127.168-.23.143-.094-.02-.22-.027-.37-.018-.607.04-1.543.33-2.373.796-.814.457-1.52 1.08-1.69 1.795-.03.134-.043.273-.034.413.005.073.024.134.055.186l.007.01c.032.05.08.093.142.133.088.057.113.175.056.264-.058.088-.177.113-.265.056-.108-.07-.193-.15-.255-.246l-.012-.017c-.064-.104-.1-.225-.11-.362-.012-.18.004-.354.044-.524.197-.833.978-1.538 1.874-2.042.88-.493 1.88-.8 2.537-.843.187-.012.35-.004.48.027" fill="#101417" mask="url(#d)"/><path d="M26.5 119.45c.105-.142.305-.17.447-.065.142.106.17.307.065.448-.372.5-.532.917-.474 1.535.062.678.37 1.607.925 3.09.833 2.222 1.942 5.397 3.118 8.853 1.56 4.58 3.24 9.662 4.555 13.684.202.62.386 1.257.557 1.85.658 2.28 1.11 3.848 2.688 3.744.937-.06 2.003-.22 2.97-.52.847-.264 1.617-.635 2.153-1.142.508-.48.808-1.092.758-1.864-.015-.235-.064-.488-.147-.758-.944-3.03-2.667-7.984-4.428-13.044-2.21-6.36-4.482-12.884-5.337-15.97-.12-.433-.295-.783-.526-1.02-.2-.2-.446-.32-.742-.334-.177-.01-.313-.16-.305-.335.01-.174.158-.31.334-.303.47.024.857.21 1.168.526.31.317.538.76.686 1.296.85 3.063 3.116 9.58 5.325 15.93 1.764 5.073 3.49 10.04 4.434 13.064.098.32.156.622.175.91.063.983-.316 1.76-.96 2.368-.613.58-1.47.996-2.398 1.285-1.023.318-2.14.485-3.122.55-2.088.137-2.6-1.633-3.34-4.21-.162-.556-.335-1.156-.554-1.825-1.315-4.027-2.995-9.108-4.55-13.676-1.182-3.473-2.292-6.647-3.112-8.835-.575-1.533-.893-2.505-.962-3.254-.075-.81.127-1.346.597-1.976" fill="#101417" mask="url(#d)"/><path d="M33.743 122.31c-.04-.096.006-.208.104-.25.097-.04.21.007.25.104.093.224.244.695.405 1.228.25.827.54 1.856.654 2.273.027.102-.033.207-.135.235-.1.028-.206-.033-.234-.134-.108-.396-.39-1.395-.652-2.263-.16-.527-.306-.988-.39-1.192M39.85 140.916l-.01-.02h-.006c.01.008.034.047.017.02m-4.264-13.106c-.044-.095-.002-.21.094-.254.096-.044.21 0 .254.094.704 1.513 1.89 5.42 2.918 8.8.5 1.647.962 3.17 1.32 4.25.005.014 0 .006 0 .008.033.05.035.052.042.164.006.106-.074.197-.18.203-.106.007-.197-.074-.204-.178 0-.003.002-.003.004 0h.005c-.01-.017-.02-.04-.032-.076-.345-1.04-.815-2.586-1.323-4.258-1.023-3.368-2.204-7.258-2.9-8.752M29.74 118.613c-.01-.176.123-.328.3-.34.175-.01.327.124.338.3.162 2.467.743 5.465 1.596 8.394.827 2.845 1.91 5.623 3.11 7.783.25.45.555.983.864 1.524 2.146 3.753 4.496 7.862 4.78 13.893.007.176-.13.326-.305.335-.177.008-.327-.13-.335-.305-.276-5.875-2.586-9.915-4.696-13.605-.28-.488-.555-.972-.866-1.532-1.224-2.202-2.325-5.027-3.165-7.914-.864-2.976-1.456-6.022-1.62-8.533M35.975 88.72c-.244-.022-.48-.113-.653-.26-.28-.24-.443-.488-.516-.73-.058-.188-.06-.372-.022-.54.04-.17.12-.323.232-.453.152-.178.36-.313.593-.385.165-.05.346-.067.523-.05.234.02.466.1.657.236.196.14.35.337.43.592.045.15.063.317.046.502-.027.295-.13.525-.275.698v.003c-.132.154-.298.26-.475.323-.173.06-.36.08-.54.064m-.405-.552c.112.096.27.156.44.17.125.013.256-.002.377-.044.117-.04.225-.11.31-.208l.004-.006c.097-.114.166-.274.185-.482.01-.134 0-.253-.032-.357-.05-.166-.155-.297-.286-.39-.135-.095-.3-.152-.468-.168-.13-.01-.26 0-.38.036-.163.05-.307.144-.412.266-.073.085-.125.185-.15.29-.025.108-.022.224.015.346.052.175.178.362.397.548" fill="#101417" mask="url(#d)"/><path d="M30.992 89.3c.413 2.526.972 5.956 1.545 7.937l1.634-.34c2.486-.52 6.644-1.388 8.095-1.492-.1-1.195-.5-4.408-.92-6.96-.28-1.696-.55-3.072-.703-3.262-.393-.188-1.017-.3-1.766-.346-1.482-.09-3.414.086-5.06.452-1.59.353-2.89.864-3.19 1.45-.023.043-.038.087-.044.13.105.563.247 1.426.41 2.43zm1.013 8.39c-.612-1.967-1.21-5.625-1.643-8.29-.165-1.003-.305-1.866-.418-2.454-.005-.03-.007-.06-.003-.09.01-.14.05-.275.117-.405.394-.773 1.86-1.393 3.62-1.783 1.702-.38 3.7-.56 5.236-.47.858.054 1.584.193 2.055.434.06.03.108.08.137.135.277.43.587 1.868.87 3.577.472 2.86.917 6.564.95 7.363.008.176-.13.324-.306.33-.017.002-.034 0-.05 0-.825-.068-5.555.92-8.27 1.486-1.125.236-1.914.402-2.018.392-.133-.012-.24-.103-.277-.222z" fill="#101417" mask="url(#d)"/><path d="M32.41 87.414c-.032-.1.025-.208.126-.238.1-.03.21.026.24.127.157.52.25 1.47.352 2.533.134 1.38.287 2.957.62 3.952.214.637.494 1.018.88.89.334-.112.694-.22 1.062-.313.342-.085.7-.163 1.06-.225.104-.018.204.053.222.157.018.105-.053.204-.157.22-.347.06-.695.136-1.032.22-.366.094-.715.198-1.034.304-.655.22-1.078-.275-1.365-1.13-.347-1.037-.503-2.636-.638-4.038-.1-1.042-.19-1.975-.338-2.458M42.94 99.882c.003.176-.138.32-.315.323-.175.002-.32-.14-.322-.315-.012-.79-.28-1.854-.52-2.822-.103-.41-.202-.805-.28-1.17-.035-.173.076-.342.25-.38.172-.035.342.076.377.25.07.338.17.733.273 1.144.25 1 .525 2.097.538 2.97m-10.098-2.334c-.01-.176.126-.327.302-.336.177-.01.328.125.337.3.044.77.18 2.47.438 3.678.136.634.267 1.104.357 1.112.285.027.86-.113 1.63-.298l.01-.003c1.207-.29 2.87-.69 4.818-.778.176-.007.325.13.333.306.008.175-.13.325-.305.332-1.887.086-3.514.478-4.694.76l-.01.005c-.83.2-1.448.348-1.838.313-.44-.04-.734-.716-.925-1.615-.265-1.243-.406-2.986-.45-3.775" fill="#101417" mask="url(#d)"/><path d="M34.66 98.423c-.018-.104.052-.203.156-.22.105-.017.204.053.22.157.04.24.064.506.086.774.065.776.134 1.598.613 1.642.105.01.182.103.173.208-.01.105-.103.182-.208.173-.8-.074-.883-1.06-.96-1.99-.023-.266-.045-.526-.08-.744M35.91 102.25c.037-.1.15-.15.247-.11.098.038.148.15.11.248-.12.302-.097.54.024.723.133.198.384.347.703.453.342.112.757.172 1.194.19 1.27.046 2.7-.262 3.06-.734.064-.085.185-.1.27-.037.083.065.1.185.035.27-.43.56-2.006.933-3.378.882-.473-.017-.925-.084-1.3-.208-.4-.13-.72-.33-.903-.605-.19-.285-.23-.64-.06-1.073M46.045 132.48c.098.04.145.15.104.25-.04.097-.153.144-.25.104-.09-.036-.212-.062-.36-.076-.607-.055-1.576.083-2.47.414-.877.324-1.672.83-1.95 1.51-.052.126-.087.26-.1.4-.006.072.002.136.026.192.024.057.066.11.124.164.078.07.085.192.014.27-.07.08-.192.086-.27.015-.1-.09-.176-.19-.223-.3h.002v-.002c-.048-.112-.066-.235-.053-.373.015-.18.06-.35.126-.51.325-.795 1.208-1.37 2.17-1.725.946-.35 1.982-.495 2.637-.435.186.018.348.052.472.103" fill="#101417" mask="url(#d)"/><path d="M35.063 102.333c.126-.123.33-.12.452.007.122.126.12.33-.007.452-.445.432-.668.82-.71 1.44-.043.682.114 1.648.43 3.198.474 2.32 1.072 5.633 1.693 9.237.814 4.723 1.68 10.015 2.35 14.223.113.703.19 1.33.263 1.912.292 2.358.493 3.978 2.064 4.122 1.095.1 2.384.097 3.525-.14.87-.18 1.65-.495 2.17-1.003.126-.122.33-.12.452.007.123.127.12.33-.007.452-.616.6-1.506.967-2.488 1.17-1.207.25-2.563.255-3.71.15-2.087-.193-2.314-2.02-2.643-4.68-.075-.604-.155-1.253-.258-1.89-.663-4.153-1.523-9.42-2.35-14.217-.623-3.612-1.22-6.922-1.688-9.216-.327-1.607-.49-2.616-.44-3.365.052-.81.336-1.31.9-1.86" fill="#101417" mask="url(#d)"/><path d="M36.855 109.482c-.024-.103.04-.206.142-.23.103-.025.206.038.23.14.117.486.624 5.32.854 7.53l.11 1.044c.012.105-.065.2-.17.21-.105.01-.2-.066-.21-.17l-.11-1.044c-.23-2.205-.735-7.02-.845-7.48M38.002 102.152c-.033-.173.082-.34.256-.372.173-.032.34.08.372.255.22 1.158.622 2.926 1.11 5.064 1.878 8.233 5.01 21.955 3.75 27.79-.037.173-.207.283-.38.246-.172-.036-.283-.206-.246-.38 1.23-5.7-1.88-19.336-3.747-27.517-.49-2.152-.896-3.93-1.115-5.088M47.668 102.686c-.245-.023-.48-.114-.653-.262-.28-.237-.443-.487-.516-.727-.06-.19-.062-.373-.023-.542.04-.17.12-.323.23-.452.152-.178.36-.314.594-.385.167-.05.348-.068.526-.052.233.02.464.1.656.237.196.138.352.337.43.59.046.15.064.318.046.504-.026.29-.124.517-.267.688l-.008.013c-.13.154-.297.26-.474.323-.174.062-.36.082-.54.066m-.405-.553c.112.096.27.156.44.17.125.013.256 0 .378-.044.117-.043.225-.11.31-.21l.008-.01c.095-.114.16-.273.18-.478.012-.134 0-.253-.033-.357-.05-.166-.154-.297-.285-.39-.136-.096-.3-.152-.47-.167-.128-.013-.258 0-.378.036-.162.05-.307.143-.41.265-.073.085-.127.184-.15.29-.026.107-.024.224.013.346.054.174.18.36.398.547" fill="#101417" mask="url(#d)"/><path d="M42.685 103.264c.413 2.527.975 5.958 1.548 7.94l1.636-.342c2.484-.52 6.64-1.39 8.09-1.494-.1-1.195-.5-4.408-.923-6.962-.28-1.695-.55-3.07-.703-3.26-.394-.188-1.018-.3-1.768-.346-1.482-.088-3.413.09-5.06.456-1.588.354-2.89.866-3.187 1.45h-.002c-.023.045-.037.09-.044.132.106.563.248 1.425.41 2.426zm1.016 8.392c-.61-1.967-1.21-5.626-1.645-8.29-.165-1.003-.306-1.864-.418-2.453-.006-.03-.007-.06-.004-.09.01-.138.05-.274.116-.405h-.002c.395-.774 1.86-1.394 3.62-1.785 1.702-.38 3.7-.563 5.235-.47.858.05 1.585.19 2.056.43.06.03.107.08.137.134.275.43.587 1.866.87 3.577.474 2.86.922 6.564.955 7.363.007.176-.13.324-.306.33-.017.002-.032 0-.047 0-.824-.068-5.556.92-8.27 1.49-1.128.236-1.916.4-2.022.392-.132-.013-.24-.105-.276-.224z" fill="#101417" mask="url(#d)"/><path d="M48.662 108.07l.21.162c-.015-.103-.108-.173-.21-.162m-4.56-6.69c-.032-.1.025-.207.126-.238.102-.03.21.027.24.128.158.518.25 1.47.354 2.533.134 1.38.287 2.956.622 3.95.214.64.494 1.02.88.89.697-.233 1.514-.447 2.33-.572h.008c.688-.106 1.38-.15 2.005-.092.105.01.183.102.174.208-.01.104-.102.182-.207.172-.59-.053-1.25-.01-1.914.09l-.008.002c-.797.123-1.592.33-2.267.556-.653.22-1.077-.275-1.365-1.13-.348-1.036-.503-2.635-.64-4.038-.1-1.04-.192-1.975-.34-2.457M44.54 111.514c-.01-.176.125-.327.3-.336.177-.01.328.126.338.3.043.77.18 2.47.44 3.68.135.632.266 1.102.357 1.11.287.027.9-.115 1.72-.304 1.385-.32 3.336-.77 5.518-.796.65-.01.85-.558.842-1.286-.012-.94-.354-2.167-.61-3.083-.103-.375-.194-.7-.245-.94-.035-.173.075-.342.25-.378.17-.036.34.075.377.247.047.227.135.54.235.9.264.948.618 2.218.63 3.245.014 1.09-.336 1.916-1.47 1.93-2.108.026-4.024.468-5.385.782-.873.2-1.527.352-1.92.317-.44-.04-.733-.716-.926-1.614-.264-1.243-.405-2.987-.45-3.776" fill="#101417" mask="url(#d)"/><path d="M46.356 112.39c-.017-.105.054-.205.158-.222.104-.017.203.054.22.157.04.243.063.507.086.775.05.612.105 1.25.357 1.518.034.034.188.077.706.04.386-.027.938-.108 1.723-.283.103-.022.205.043.228.146.022.104-.043.206-.146.23-.81.18-1.38.263-1.777.29-.67.05-.928-.07-1.012-.16-.345-.365-.404-1.07-.46-1.747-.023-.265-.045-.526-.082-.744M47.608 116.214c.04-.1.15-.148.25-.11.097.04.146.15.107.25-.132.336-.078.595.1.786.16.172.418.3.736.39.335.093.73.14 1.143.15 1.333.024 2.847-.355 3.18-.968.05-.094.168-.128.26-.077.093.05.127.167.077.26-.4.737-2.073 1.194-3.524 1.167-.446-.01-.874-.062-1.24-.164-.38-.106-.7-.27-.912-.497-.28-.298-.37-.69-.176-1.186M57.758 146.44c.097.04.144.152.104.25-.04.097-.152.144-.25.105-.088-.037-.212-.062-.36-.075-.606-.056-1.575.083-2.47.414l-.01.004c-.87.324-1.66.83-1.938 1.506-.053.126-.087.26-.1.4-.006.073.003.137.026.193.024.057.066.112.124.163.08.072.085.193.015.27-.073.08-.194.086-.272.016-.1-.09-.176-.19-.222-.3-.047-.115-.065-.24-.052-.376.016-.18.06-.35.125-.512.323-.79 1.2-1.363 2.158-1.72l.01-.004c.946-.35 1.982-.496 2.638-.436.186.017.347.052.472.102" fill="#101417" mask="url(#d)"/><path d="M58.855 150.675c-.15.093-.347.047-.44-.103-.093-.15-.047-.347.102-.44.433-.268.773-.62.97-1.07.18-.41.246-.91.158-1.512v-.01c-.46-3.147-1.388-8.31-2.334-13.582-1.19-6.625-2.41-13.42-2.77-16.593-.052-.444-.17-.817-.362-1.086-.165-.23-.39-.388-.68-.45-.174-.034-.285-.204-.25-.377.036-.172.206-.283.38-.247.458.096.813.34 1.07.702.258.36.413.836.476 1.387.36 3.164 1.578 9.943 2.765 16.55.95 5.29 1.88 10.47 2.337 13.602l.002.01c.105.728.02 1.346-.206 1.863-.253.575-.68 1.02-1.22 1.355M46.763 116.3c.126-.124.33-.12.452.006.122.125.12.33-.007.45-.444.434-.667.822-.708 1.442-.045.682.113 1.647.43 3.197.475 2.324 1.076 5.64 1.7 9.25.814 4.72 1.68 10.005 2.352 14.208.092.575.17 1.12.243 1.644.204 1.458.388 2.768.72 3.557.07.16-.006.348-.17.417-.16.07-.348-.007-.416-.17-.37-.867-.558-2.216-.768-3.715-.076-.54-.155-1.098-.24-1.632-.664-4.148-1.526-9.41-2.354-14.202-.625-3.617-1.225-6.93-1.694-9.228-.328-1.606-.49-2.615-.443-3.364.054-.81.337-1.31.902-1.86M53.468 120.257c-.024-.103.04-.207.14-.232.104-.024.208.04.233.14.057.233.133.724.21 1.278.12.885.244 1.93.29 2.347.012.105-.065.2-.17.21-.105.013-.2-.063-.212-.17-.047-.42-.17-1.466-.29-2.336-.073-.542-.147-1.02-.2-1.237" fill="#101417" mask="url(#d)"/><path d="M56.59 139.585l-.007-.02h-.004c.007.01.022.046.01.02m-2.16-13.608c-.03-.102.03-.208.13-.238.103-.03.21.03.238.132.458 1.604 1.02 5.648 1.506 9.15.24 1.718.46 3.306.638 4.403.002.01-.003 0-.003.002l.003.007v.002c.022.05.024.054.014.163-.01.105-.103.182-.208.173-.106-.01-.185-.103-.175-.208 0-.003.002-.002.004 0h.003c-.006-.017-.012-.04-.02-.08-.18-1.108-.4-2.694-.64-4.41-.483-3.487-1.042-7.514-1.494-9.098M50.1 116.08c-.04-.17.067-.344.238-.384.173-.04.345.067.385.24 1.71 7.268 2.37 13.08 2.983 18.462.557 4.883 1.072 9.413 2.297 14.35.042.173-.063.347-.234.388-.172.043-.346-.062-.388-.233-1.234-4.98-1.753-9.53-2.31-14.436-.61-5.36-1.272-11.15-2.972-18.386M60.428 90.974zm1.453 1.59l-1.124-.09v-.002c-.188-.217-.283-.42-.308-.602-.018-.126-.003-.24.038-.342.04-.102.108-.19.19-.263h.003c.12-.106.28-.177.448-.2.123-.017.254-.01.38.022.163.04.318.122.437.237.114.112.197.258.22.43.016.107.01.226-.023.357-.052.208-.146.356-.26.454zm-.81.517c-.238-.058-.456-.185-.605-.358-.238-.278-.36-.55-.397-.8-.028-.194-.002-.375.063-.537.066-.16.17-.3.298-.41.178-.154.405-.256.646-.29.173-.025.354-.013.527.03.227.056.443.17.612.335.173.168.297.388.334.65.022.156.013.325-.032.505-.072.288-.21.502-.383.65-.15.13-.328.21-.512.244h-.003c-.183.035-.37.026-.545-.02zm-.314-.607c.096.11.244.195.407.236.124.03.256.037.38.014l.006-.002c.1-.015.198.053.217.155l-1.01-.404z" fill="#101417" mask="url(#d)"/><path d="M66.748 89.96l-.04.297c.063-.09.075-.2.04-.298m-10.69 2.92c.017 2.56.04 6.035.3 8.085l1.674-.084c2.537-.13 6.773-.346 8.22-.224.086-1.2.188-4.436.166-7.018-.015-1.72-.07-3.12-.19-3.333-.36-.246-.958-.453-1.693-.613-1.45-.318-3.386-.44-5.068-.333-1.625.103-2.99.408-3.375.94-.03.04-.052.083-.065.125.018.583.024 1.45.03 2.456m-.295 8.444c-.3-2.036-.324-5.742-.343-8.44-.007-1.023-.013-1.9-.033-2.487 0-.027.002-.053.007-.077.03-.14.09-.273.18-.395.51-.703 2.054-1.09 3.852-1.204 1.74-.11 3.742.017 5.244.346.84.183 1.535.434 1.966.745.053.04.09.09.112.15.208.46.294 1.932.308 3.672.026 2.903-.106 6.63-.195 7.42-.02.176-.177.302-.353.283l-.042-.007c-.788-.2-5.625.05-8.4.19-1.155.06-1.965.1-2.063.076-.13-.033-.224-.144-.24-.27" fill="#101417" mask="url(#d)"/><path d="M57.748 91.24c-.014-.104.058-.202.163-.216.106-.014.203.06.218.163.077.537.02 1.492-.042 2.557v.007c-.08 1.384-.173 2.962.002 3.994.113.663.33 1.083.732 1.015.104-.018.204.052.22.157.018.104-.052.203-.156.22-.68.116-1.022-.44-1.174-1.33-.183-1.076-.09-2.675-.007-4.08v-.005c.06-1.045.116-1.98.045-2.48M56.613 101.32c.017-.175.173-.303.35-.286.174.017.303.174.286.35-.077.766-.204 2.47-.136 3.7.035.647.092 1.13.182 1.153.28.07.908.027 1.745-.033 1.42-.102 3.42-.245 5.577.066.643.092.926-.42 1.03-1.138.133-.934-.014-2.197-.124-3.14-.046-.38-.084-.712-.097-.967-.01-.176.126-.326.303-.335.175-.01.325.126.334.303.01.222.05.55.093.925.115.978.268 2.288.122 3.304-.157 1.08-.63 1.842-1.754 1.68-2.088-.3-4.048-.16-5.44-.06-.894.063-1.566.11-1.946.015-.43-.107-.614-.82-.665-1.738-.07-1.27.06-3.014.138-3.8" fill="#101417" mask="url(#d)"/><path d="M58.272 102.464c0-.105.085-.192.19-.193.106 0 .193.086.194.192.002.245-.017.51-.036.777-.055.776-.115 1.597.352 1.714.102.026.166.13.14.233-.026.103-.13.166-.233.14-.78-.196-.71-1.183-.643-2.115.02-.266.038-.528.035-.748M58.764 106.56c.056-.09.173-.117.264-.062.09.056.117.173.062.264-.443.713-.296 1.183.144 1.455.55.34 1.508.427 2.43.325.92-.1 1.79-.387 2.17-.794.238-.26.238-.59-.17-.968-.08-.073-.084-.194-.01-.27.07-.08.192-.083.27-.01.61.564.585 1.083.19 1.51-.44.475-1.405.803-2.407.913-.998.11-2.05.007-2.675-.38-.63-.39-.857-1.035-.268-1.983M64.265 137.87c.09.053.12.17.065.263-.054.09-.173.12-.263.065-.356-.215-1.258-.306-2.224-.2-.79.086-1.614.306-2.2.7-.087.058-.206.035-.265-.053-.058-.088-.035-.207.053-.266.642-.432 1.528-.67 2.374-.763 1.042-.114 2.042 0 2.46.252" fill="#101417" mask="url(#d)"/><path d="M59.03 142.194c-.172-.042-.277-.217-.234-.387.043-.17.217-.276.388-.234.914.23 1.977.407 2.99.418.883.01 1.73-.107 2.397-.425.633-.3 1.106-.79 1.295-1.538.058-.232.09-.488.094-.768.032-3.165-.085-8.415-.204-13.776-.15-6.732-.305-13.64-.17-16.835.018-.45-.04-.837-.188-1.133-.127-.252-.326-.442-.604-.547-.165-.062-.25-.246-.186-.412.06-.164.246-.248.41-.186.44.166.75.464.95.86.2.396.28.89.256 1.44-.134 3.184.02 10.08.17 16.8.12 5.364.236 10.617.203 13.792-.004.336-.042.643-.11.918-.242.958-.842 1.58-1.64 1.962-.762.362-1.704.495-2.68.485-1.073-.013-2.187-.196-3.138-.436m-.963-35.803c.144-.1.343-.068.446.076.102.144.068.343-.076.446-.507.36-.787.708-.923 1.314-.15.665-.143 1.644-.07 3.226.074 1.588.135 3.65.184 5.958.057 2.675.1 5.682.13 8.67 0 .177-.14.32-.318.322-.176.002-.32-.14-.322-.316-.03-2.98-.07-5.984-.128-8.664-.05-2.29-.11-4.344-.184-5.942-.075-1.636-.08-2.66.084-3.392.178-.792.536-1.242 1.177-1.697" fill="#101417" mask="url(#d)"/><path d="M64.103 111.337c-.01-.105.093-.198.233-.207.14-.008.262.072.274.178.025.233.023.73.008 1.29-.02.893-.075 1.944-.1 2.364-.005.106-.125.188-.263.184-.14-.005-.25-.094-.243-.2.025-.423.08-1.475.1-2.354.013-.544.016-1.027-.01-1.255M64.144 117.138c-.015-.105.077-.2.205-.214.128-.013.246.062.262.167.25 1.66.16 5.762.085 9.305l-.02.906c0 .107-.108.19-.237.19-.13-.003-.233-.09-.232-.195l.02-.907c.076-3.525.163-7.61-.084-9.25M61.408 106.59c.042-.17.217-.276.388-.232.17.042.275.216.232.388-.604 2.398-.973 5.43-1.06 8.48-.088 2.96.087 5.934.565 8.362.12.6.236 1.155.353 1.713.89 4.233 1.862 8.867.28 14.69-.048.172-.224.272-.395.226-.17-.046-.27-.22-.224-.392 1.544-5.68.588-10.233-.286-14.392-.126-.6-.25-1.192-.355-1.722-.486-2.468-.665-5.494-.577-8.502.09-3.098.466-6.18 1.08-8.618M74.077 99.012c.052.085.03.197-.052.256l.052-.256zm.25.623c-.226-.08-.427-.22-.56-.398l-.01-.013c-.213-.297-.312-.58-.325-.83-.01-.2.03-.378.11-.532.075-.15.186-.275.32-.374l.013-.01c.19-.136.424-.218.668-.23.174-.01.353.017.52.076.222.077.427.21.58.386h.002c.156.184.26.414.275.68.007.156-.016.323-.076.498-.096.275-.247.472-.425.605l-.015.01c-.163.117-.35.18-.538.2-.182.016-.37-.01-.54-.068zm-.25-.623c.087.115.222.207.377.26.12.042.25.06.378.048.122-.012.243-.053.35-.13l.01-.007c.12-.09.22-.226.29-.42.044-.127.06-.245.054-.354-.01-.175-.078-.327-.182-.45-.11-.126-.256-.22-.415-.275-.123-.04-.253-.06-.377-.055-.17.01-.333.066-.464.16l-.013.007c-.085.064-.156.145-.203.24-.05.096-.075.21-.07.336.01.182.088.393.255.627l.007.012z" fill="#101417" mask="url(#d)"/><path d="M69.354 98.994c-.208 2.554-.49 6.022-.413 8.08l1.676.063c2.54.093 6.778.25 8.21.5.19-1.186.575-4.4.78-6.98.136-1.715.206-3.116.104-3.335-.336-.277-.915-.536-1.632-.76-1.417-.444-3.334-.736-5.02-.777-1.627-.04-3.013.145-3.445.64-.032.038-.058.078-.075.118-.034.608-.104 1.46-.184 2.45m-1.037 8.39v-.003c-.12-2.063.18-5.75.398-8.435.084-1.037.158-1.925.188-2.482 0-.027.006-.054.014-.08.042-.136.115-.262.213-.376.57-.655 2.142-.904 3.943-.86 1.744.042 3.728.346 5.195.805.82.256 1.49.566 1.89.914.05.042.083.097.1.155.167.476.124 1.952-.014 3.688-.23 2.888-.69 6.59-.85 7.376-.035.172-.203.285-.376.25-.014-.003-.028-.007-.04-.012-.768-.266-5.607-.445-8.386-.547-1.153-.043-1.964-.073-2.062-.107-.126-.044-.207-.16-.213-.285" fill="#101417" mask="url(#d)"/><path d="M71.18 97.51c-.005-.107.077-.197.183-.202.105-.005.196.076.2.182.03.542-.11 1.487-.265 2.542-.203 1.373-.434 2.94-.35 3.985.054.67.235 1.107.64 1.075.443-.035.932-.053 1.437-.044.452.008.914.037 1.363.094.105.014.18.11.166.215-.013.104-.11.18-.214.165-.435-.055-.882-.084-1.32-.09-.486-.01-.963.008-1.402.043-.688.055-.98-.528-1.053-1.427-.088-1.09.148-2.678.353-4.072.153-1.036.29-1.964.263-2.467M69.163 107.45c.033-.173.2-.287.373-.255.173.032.288.2.256.373-.143.76-.42 2.446-.46 3.674-.022.65-.008 1.136.08 1.167.274.094.902.105 1.74.118 1.425.024 3.432.057 5.548.555.633.15.96-.335 1.126-1.043.217-.922.18-2.19.154-3.14-.01-.386-.02-.722-.01-.97.005-.176.153-.313.33-.307.175.006.313.154.307.33-.008.23 0 .556.01.93.03.986.067 2.307-.168 3.303-.25 1.063-.79 1.78-1.895 1.52-2.06-.485-4.02-.517-5.413-.54-.898-.014-1.57-.026-1.94-.154-.42-.146-.54-.87-.51-1.79.043-1.273.326-2.998.47-3.77" fill="#101417" mask="url(#d)"/><path d="M70.716 108.736c.007-.106.1-.184.206-.177.105.007.184.1.176.205-.017.235-.06.5-.104.773-.097.606-.2 1.238-.02 1.558h.002c.01.02.074.06.274.12.174.05.425.103.785.145.105.012.18.108.17.213-.013.106-.11.18-.214.17-.385-.045-.66-.102-.85-.16-.318-.095-.45-.216-.5-.3h.002c-.246-.437-.134-1.135-.027-1.805.042-.26.083-.512.1-.742M70.28 114.448c-.02-.104.045-.206.15-.227.102-.02.204.046.225.15.115.544 1.132.79 2.262.777.462-.005.943-.057 1.39-.153.444-.094.855-.23 1.18-.405.51-.275.808-.643.677-1.088-.03-.102.03-.21.13-.238.1-.03.21.03.238.13.193.657-.192 1.17-.863 1.532-.36.193-.806.342-1.282.443-.47.1-.978.155-1.467.16-1.3.016-2.48-.33-2.64-1.082M73.572 144.53c.085.062.104.182.042.267-.063.086-.183.105-.27.042-.077-.058-.19-.113-.33-.16-.576-.2-1.55-.3-2.497-.194-.928.104-1.82.404-2.255.996-.08.11-.147.233-.194.365l-.002.007c-.022.067-.028.13-.02.186.01.06.038.124.082.19.06.088.035.207-.052.266-.088.058-.207.035-.266-.053-.075-.11-.123-.224-.14-.344-.02-.12-.008-.24.033-.368l.004-.01c.06-.17.143-.326.246-.466.506-.69 1.5-1.036 2.522-1.15 1.002-.113 2.043-.005 2.664.21.176.063.325.134.432.214" fill="#101417" mask="url(#d)"/><path d="M70.166 112.63c.152-.09.348-.04.437.113.09.152.038.348-.114.436-.537.313-.847.636-1.036 1.228-.207.65-.287 1.624-.353 3.205-.098 2.372-.314 5.73-.58 9.374-.35 4.838-.783 10.165-1.14 14.37-.058.678-.135 1.32-.207 1.92-.284 2.36-.48 3.98 1.012 4.497.888.31 1.932.577 2.94.677.882.09 1.735.047 2.428-.21.655-.245 1.17-.69 1.425-1.42l.004-.013c.075-.22.128-.468.156-.745.31-3.138.655-8.383 1.008-13.738.442-6.714.895-13.604 1.312-16.787.058-.443.033-.833-.09-1.142-.104-.263-.285-.47-.552-.598-.16-.077-.225-.268-.15-.427.077-.16.27-.226.427-.15.424.205.708.53.87.94.164.41.2.91.128 1.46-.41 3.146-.865 10.033-1.307 16.745-.352 5.35-.696 10.59-1.01 13.76-.032.325-.096.62-.187.886l-.005.02c-.324.932-.976 1.5-1.804 1.808-.793.294-1.743.344-2.713.25-1.065-.107-2.16-.39-3.087-.71-1.98-.688-1.76-2.516-1.44-5.176.072-.59.148-1.222.205-1.898.36-4.23.795-9.564 1.143-14.362.265-3.66.482-7.017.58-9.353.07-1.64.155-2.658.382-3.374.246-.774.642-1.19 1.32-1.587" fill="#101417" mask="url(#d)"/><path d="M75.722 118.085c0-.105.087-.19.193-.19.104 0 .19.086.19.192 0 .24-.047.734-.105 1.287-.094.876-.23 1.927-.284 2.35-.014.104-.11.177-.216.164-.104-.014-.18-.11-.164-.215.054-.414.187-1.454.282-2.34.06-.545.103-1.026.104-1.248M74.093 137.6l-.004-.025h-.005c.004.01.012.045.01.032v-.005l-.002-.002zm1.182-13.733c-.003-.105.08-.194.186-.197.106-.003.194.08.198.186.057 1.67-.372 5.727-.744 9.24-.182 1.716-.35 3.302-.44 4.43-.002.012-.005 0-.004.004v.011c.01.05.008.06-.025.157-.035.1-.144.154-.244.12-.1-.035-.153-.144-.12-.244.002-.003.003 0 .005 0l.004.002c-.002-.017-.003-.043 0-.08.09-1.103.26-2.704.442-4.437.37-3.503.8-7.548.743-9.19zM73.484 113.104c.067-.163.254-.24.417-.174.163.067.24.253.174.417-2.962 7.146-2.68 15.812-2.457 22.687.166 5.125.3 9.272-.97 11.188-.097.147-.295.187-.443.09-.147-.097-.187-.296-.09-.442 1.158-1.748 1.027-5.803.864-10.816-.225-6.936-.508-15.678 2.506-22.95M48.64 87.023c.006.106-.075.197-.18.204-.105.006-.197-.074-.203-.18-.03-.45-.045-1.058-.05-1.653-.01-.767 0-1.514.016-1.89.036-.896.202-1.518.614-1.97.407-.45 1.04-.715 2.01-.894.816-.15 1.77-.193 2.683-.155.996.042 1.948.18 2.62.376.73.215 1.175.515 1.46 1.05.273.51.384 1.224.454 2.286.006.105-.074.197-.18.204-.105.006-.197-.074-.204-.18-.066-1.01-.166-1.68-.408-2.13-.23-.432-.606-.678-1.23-.86-.645-.19-1.562-.322-2.527-.362-.887-.037-1.813.004-2.597.15-.885.16-1.453.39-1.797.77-.342.378-.482.927-.515 1.73-.014.375-.023 1.115-.016 1.872.004.582.02 1.18.05 1.633M36.92 144.657c.104-.015.202.057.218.16.015.106-.057.205-.162.22-2.05.315-4.55.82-7.186 1.352-5.02 1.01-10.52 2.122-14.224 2.197l-.607.013c-.107.002-.195-.082-.197-.188-.002-.105.082-.193.188-.195l.61-.012c3.668-.074 9.153-1.18 14.155-2.19 2.654-.537 5.175-1.046 7.204-1.358" fill="#101417" mask="url(#d)"/><path d="M27.576 127.324c-.007-.005-.9-.05-.613 1.054.366 1.42 2.3 3.764 3.117 3.738 11.965-.38 31.355.37 42.632-2.513 5.536-1.415 4.448-2.75 5.62-6.02 1.264-3.527-.368-6.81-.295-4.91.145 3.75-8.486 6.206-12.235 6.766-3.194.477-6.494-.34-11.18.54-1.37.258-3.81.28-6.423.687-7.532 1.178-18.01 2.63-20.624.657" fill="#F7BFD7" mask="url(#d)"/><path d="M27.2 125.055c.15-.09.348-.04.438.11.09.152.042.348-.11.438-.483.29-.755.538-.865.747-.075.145-.04.274.065.388.165.177.465.336.833.475 1.247.468 3.155.66 3.63.676 4.398.14 9.477-.59 14.77-1.354 1.678-.242 3.377-.488 5.157-.718 4.02-.52 6.935-.666 9.416-.79 2.41-.12 4.413-.22 6.613-.625 4.313-.794 7.813-2.117 9.726-3.713.576-.48 1.004-.983 1.258-1.5.244-.494.33-1.004.234-1.52-.09-.49-.34-.994-.77-1.507-.112-.135-.094-.337.04-.45.136-.113.338-.096.452.04.5.6.796 1.203.907 1.8.12.66.016 1.302-.29 1.92-.294.6-.777 1.17-1.42 1.708-1.997 1.666-5.602 3.037-10.022 3.85-2.24.413-4.26.515-6.697.636-2.473.124-5.378.27-9.367.785-1.68.218-3.425.47-5.147.718-5.32.767-10.422 1.503-14.878 1.358-.503-.016-2.516-.22-3.836-.716-.454-.17-.838-.38-1.076-.636-.297-.32-.387-.692-.164-1.118.16-.31.51-.645 1.104-1" fill="#101417" mask="url(#d)"/><path d="M78.35 117.62c-.05-.17.048-.346.217-.395.17-.048.347.048.395.217.78 2.693.535 3.568.228 4.667-.197.706-.422 1.515-.376 3.063.153 5.134-12.475 6.482-24.955 6.854-4.225.126-8.44.143-12.12.157-3.86.016-7.133.03-9.225.165l-.306.02c-2.378.155-4.332.283-4.61-1.34-.036-.21-.22-.993-.486-1.647-.142-.35-.3-.653-.447-.763-.142-.104-.17-.305-.067-.446.105-.142.305-.172.447-.067.257.19.48.59.66 1.036.284.7.485 1.55.524 1.78.18 1.055 1.876.943 3.94.807l.305-.02c2.09-.135 5.38-.15 9.262-.164 3.673-.014 7.878-.032 12.105-.157 12.163-.364 24.47-1.6 24.334-6.2-.05-1.644.19-2.5.4-3.25.278-1.005.5-1.803-.227-4.32" fill="#101417" mask="url(#d)"/><path d="M77.215 123.532c.064-.084.185-.1.27-.036.083.064.1.184.035.27-.36.47-1.29.99-2.314 1.425-1.31.557-2.79.992-3.403 1.023-.106.004-.195-.077-.2-.183-.005-.105.077-.196.182-.2.575-.03 1.997-.45 3.27-.993.97-.413 1.845-.89 2.16-1.305M76.068 125.463c.063-.085.183-.104.27-.04.084.06.103.18.04.267-.214.29-.615.565-1.067.804-.63.336-1.375.61-1.828.748-.1.032-.208-.025-.24-.127-.03-.1.026-.208.127-.24.436-.134 1.153-.397 1.762-.72.406-.215.762-.455.936-.692M28.915 129.807c-.102-.028-.163-.133-.135-.235.028-.102.133-.162.235-.135 1.3.357 1.878.35 2.97.338.257-.003.54-.006.752-.006.107 0 .193.085.193.19 0 .107-.086.193-.193.193-.344 0-.556.003-.75.004-1.125.013-1.724.02-3.072-.35M27.895 130.548c.177.012.31.164.298.34-.01.176-.164.31-.34.298-.51-.034-.94-.227-1.34-.408-.813-.367-1.492-.675-2.503 1.543-.98 2.15-2.69 2.003-4.893 1.813-1.707-.147-3.735-.32-5.905.643-.16.07-.35-.002-.42-.163-.07-.16.002-.35.163-.42 2.323-1.033 4.437-.85 6.217-.698 1.95.168 3.465.3 4.257-1.44 1.274-2.797 2.217-2.37 3.347-1.86.35.158.723.327 1.118.353" fill="#101417" mask="url(#d)"/><path d="M29.165 131.72c.175-.028.34.09.368.263.03.175-.088.34-.263.368-.636.108-.674.682-.72 1.363-.106 1.653-.246 3.788-6.143 3.53-1.614-.07-2.48-.275-3.074-.414-1.125-.266-1.136-.267-4.412 1.883-2.454 1.61-4.528 1.037-6.514.487-1.934-.535-3.777-1.046-5.768.8l-.004.004c-.01.016-.023.06-.038.093l-.006.015c-.077.16-.27.225-.427.15-.16-.078-.226-.27-.15-.428l.008-.014c.03-.058.08-.164.14-.24.013-.017.026-.033.043-.047 2.25-2.09 4.264-1.532 6.374-.948 1.85.512 3.78 1.047 5.993-.405 3.508-2.302 3.523-2.3 4.908-1.973.572.133 1.41.33 2.957.398 5.272.23 5.388-1.552 5.478-2.933.062-.955.115-1.76 1.252-1.95" fill="#101417" mask="url(#d)"/></g></svg>