<svg width="13" height="16" viewBox="0 0 13 16" xmlns="http://www.w3.org/2000/svg"><title>lock - FontAwesome</title><path d="M3.57143 7.42857h5.714284V5.285715c0-.788694-.279015-1.46205-.837053-2.02009-.558038-.558037-1.231394-.837053-2.02009-.837053-.788693 0-1.46205.279017-2.020088.837055-.558038.558038-.837053 1.231395-.837053 2.02009V7.42857zM12.857142 8.5v6.42857c0 .297622-.104166.550596-.3125.75893-.208335.208334-.461308.3125-.75893.3125H1.07143c-.297622 0-.550596-.104166-.75893-.3125C.104166 15.479166 0 15.226192 0 14.92857V8.5c0-.29762.104166-.550594.3125-.75893.208334-.208333.461308-.3125.75893-.3125h.35714V5.285715c0-1.369054.491068-2.544638 1.473216-3.526785C3.883933.77678 5.059516.285713 6.42857.285713c1.369056 0 2.54464.491067 3.526787 1.473215.982148.982146 1.473214 2.15773 1.473214 3.526784V7.42857h.357144c.29762 0 .550594.104167.75893.3125.208333.208336.3125.46131.3125.75893z" fill="#DDD" fill-rule="evenodd"/></svg>