<svg viewBox="0 0 137 39" xmlns="http://www.w3.org/2000/svg" xmlns:xlink="http://www.w3.org/1999/xlink"><title>Logo</title><defs><path id="a" d="M30.24 38.71H0V.163h30.24z"/></defs><g fill="none" fill-rule="evenodd"><path d="M135.055 20.918c0-1.794-.45-3.147-1.35-4.055-.9-.91-2.242-1.368-4.014-1.368h-2.325v10.998h1.947c1.908 0 3.342-.47 4.304-1.408.958-.938 1.44-2.33 1.44-4.167zm1.695-.055c0 2.274-.616 4.014-1.85 5.214-1.232 1.2-3.008 1.804-5.325 1.804h-3.81V14.11h4.214c2.14 0 3.804.594 4.99 1.78 1.188 1.19 1.78 2.85 1.78 4.975zm-21.304-.08h2.19c1.133 0 1.96-.225 2.484-.676.53-.444.792-1.12.792-2.018 0-.91-.267-1.57-.805-1.97-.533-.402-1.396-.604-2.583-.604h-2.078v5.267zm0 1.37v5.728h-1.6V14.11h3.772c1.69 0 2.937.325 3.742.97.805.647 1.208 1.62 1.208 2.92 0 1.824-.92 3.055-2.764 3.697l3.737 6.186h-1.89l-3.335-5.727h-2.87zm-6.977 5.728h1.6V14.11h-1.6V27.88zm-10.895-6.518v5.15h2.876c1.106 0 1.946-.215 2.504-.646.565-.43.846-1.102.846-2.02 0-.85-.29-1.48-.857-1.884-.58-.4-1.45-.6-2.626-.6h-2.742zm0-1.35h2.635c1.13 0 1.943-.177 2.44-.535.5-.353.745-.952.745-1.792 0-.773-.277-1.334-.828-1.674-.556-.34-1.43-.515-2.636-.515h-2.355v4.516zm-1.6-5.904h3.89c1.824 0 3.147.274 3.96.82.816.548 1.225 1.414 1.225 2.59 0 .817-.223 1.492-.68 2.025-.455.53-1.118.87-1.992 1.03v.094c2.09.355 3.135 1.457 3.135 3.295 0 1.233-.417 2.194-1.246 2.884-.833.69-1.996 1.035-3.49 1.035h-4.803V14.11z" fill="#EE498D"/><g transform="translate(0 .128)"><mask id="b" fill="#fff"><use xlink:href="#a"/></mask><path d="M15.12 2.115c.348 0 .632.285.632.632 0 .35-.284.633-.632.633-.35 0-.633-.282-.633-.633 0-.347.282-.632.633-.632zm6.654 15.483c.502 0 .906.383.906.86 0 .474-.404.858-.906.858s-.908-.384-.908-.86c0-.475.406-.858.908-.858zm-6.19 21.112h-.928v-2.745c.31 0 .62-.012.927-.036v2.78zM17.367.79V6.6h-.014l-.074-.01-.06-.004h-.018l-.076-.008-.08-.007h-.026l-.05-.006-.078-.006-.077-.004-.08-.005-.077-.007-.05-.002-.03-.002-.157-.01h-.02l-.06-.003-.078-.005-.07-.002h-.013l-.08-.005-.08-.003h-.04l-.04-.003-.08-.002-.038-.003v2.28c8.024.367 14.42 6.992 14.42 15.11 0 5.99-3.483 11.164-8.528 13.618v.245c0 .524-.428.955-.953.955h-4.203v-2.887c7.442-1.095 10.405-7.018 9.987-14.036l2.06-1.604-2.418-.828c-.797-3.326-3.86-4.765-6.503-4.244-2.733.542-4.79 2.957-4.612 6.273.49 9.194-2.144 12.055-8.454 11.465 1.943 1.94 4.49 2.903 7.067 3.086v2.776H9.478c-.525 0-.955-.43-.955-.955v-.248C3.478 35.057 0 29.882 0 23.893c0-8.12 6.393-14.744 14.417-15.11v-2.28l-.036.002-.08.002-.04.003h-.043l-.078.003-.08.005h-.012l-.07.002-.078.005-.062.003h-.018l-.16.01-.03.003-.048.003-.078.006-.08.004-.078.004-.077.006-.05.007h-.03l-.077.008-.076.008h-.02l-.057.005-.075.01h-.015V.79c0-.348 1.007-.628 2.25-.628s2.248.28 2.248.627z" fill="#010201" mask="url(#b)"/></g><path d="M58.657 33.668c.512 0 .925.413.925.925 0 .51-.413.923-.925.923-.51 0-.925-.412-.925-.923 0-.512.414-.925.925-.925M116.09 33.668c.508 0 .923.413.923.925 0 .51-.415.923-.924.923-.513 0-.927-.412-.927-.923 0-.512.414-.925.926-.925M112.04 36.712h-.362l-1.624-2.236-.563.497v1.74h-.292V32.48h.293v2.2l.472-.47 1.656-1.73h.372l-1.728 1.787 1.777 2.445zm-9.56-2.1h.805c.358 0 .633-.08.83-.24.195-.158.294-.394.294-.703 0-.327-.095-.564-.29-.707-.19-.15-.505-.222-.942-.222h-.697v1.873zm0 .258v1.842h-.294v-4.23h1.006c.524 0 .912.097 1.16.288.25.195.376.487.376.875 0 .285-.075.524-.224.72-.15.193-.374.333-.68.42l1.15 1.927h-.356l-1.09-1.842h-1.047zm-8.218-.283c0 .605.134 1.076.404 1.407.27.33.66.494 1.163.494.508 0 .895-.16 1.165-.487.267-.33.402-.8.402-1.413 0-.606-.135-1.076-.402-1.4-.27-.325-.654-.486-1.162-.486-.502 0-.89.162-1.162.49-.27.33-.408.796-.408 1.397zm3.455.003c0 .67-.168 1.205-.5 1.593-.334.39-.8.587-1.388.587-.588 0-1.052-.197-1.39-.587-.33-.388-.498-.922-.498-1.6 0-.67.17-1.202.506-1.588.34-.383.8-.577 1.385-.577.592 0 1.053.194 1.385.58.334.39.5.922.5 1.592zM80.6 36.712h-.244l-.927-3.265c-.077-.265-.137-.487-.173-.658-.03.165-.076.356-.133.575-.058.22-.368 1.333-.932 3.347h-.25l-1.162-4.23h.31l.742 2.723c.027.11.053.212.08.307.026.092.047.18.067.262.02.082.04.162.055.235l.045.23c.046-.26.144-.66.294-1.193l.725-2.566h.325l.847 2.945c.097.34.17.614.21.822.025-.137.057-.288.096-.442.04-.156.338-1.263.892-3.324h.298L80.6 36.713zm-7.816 0h-2.312v-4.23h2.312v.273h-2.017v1.596h1.902v.276h-1.903v1.81h2.017v.276zm15.735-1.917l1.238-2.314h.32l-1.41 2.594v1.638h-.304V35.1l-1.415-2.62h.337l1.232 2.315zm-22.742 1.917h-.296l-2.502-3.757h-.025c.025.448.035.786.035 1.01v2.747h-.284v-4.23h.297l2.497 3.75h.02c-.02-.35-.028-.68-.028-.992v-2.76h.286v4.232zM89.517 27.882h-.97V15.017h-4.475v-.908h9.92v.907h-4.475v12.865zm-7.49 0h-.968l-8.15-12.227h-.08c.08 1.455.113 2.557.113 3.295v8.932h-.92V14.11h.96l8.14 12.21h.056c-.056-1.133-.082-2.206-.082-3.227V14.11h.928V27.88zm-13.117 0h-7.527V14.11h7.527v.885h-6.56v5.21h6.192v.887H62.35v5.903h6.56v.887zM55.282 14.764c-1.727 0-3.087.554-4.077 1.658-.992 1.11-1.487 2.624-1.487 4.55 0 1.968.47 3.497 1.403 4.583.94 1.09 2.27 1.634 4.008 1.634 1.157 0 2.22-.15 3.184-.445v.846c-.91.324-2.044.483-3.407.483-1.932 0-3.455-.622-4.567-1.873-1.11-1.25-1.664-2.996-1.664-5.238 0-1.402.262-2.636.792-3.702.532-1.067 1.295-1.89 2.288-2.474.997-.583 2.154-.87 3.472-.87 1.343 0 2.546.248 3.606.74l-.39.86c-1.004-.5-2.054-.752-3.16-.752zM46.5 24.336c0 1.147-.423 2.06-1.268 2.73-.846.672-1.966 1.007-3.365 1.007-1.683 0-2.973-.184-3.873-.554v-.966c.993.423 2.257.635 3.796.635 1.132 0 2.023-.266 2.69-.78.662-.52.993-1.197.993-2.04 0-.518-.11-.952-.33-1.292-.22-.342-.58-.654-1.074-.94-.497-.282-1.227-.584-2.187-.912-1.405-.486-2.375-1.005-2.91-1.568-.538-.562-.807-1.313-.807-2.247 0-1.03.403-1.87 1.21-2.52.808-.65 1.84-.973 3.11-.973 1.293 0 2.51.243 3.646.734l-.35.83c-1.14-.478-2.234-.716-3.275-.716-1.02 0-1.828.236-2.43.71-.604.467-.903 1.107-.903 1.916 0 .51.092.925.277 1.253.186.328.49.622.91.88.42.264 1.14.577 2.165.937 1.074.373 1.88.735 2.42 1.08.54.348.933.744 1.18 1.188.25.444.374.978.374 1.608z" fill="#010201"/></g></svg>
