<svg width="29" height="35" viewBox="0 0 29 35" xmlns="http://www.w3.org/2000/svg"><title>Page 1 Copy</title><g fill="#74BB2C" fill-rule="evenodd"><path d="M21.776 27.184c-3.02 2.673-6.555 4.487-7.567 4.98l-.033.014-.03-.015c-1.013-.49-4.55-2.297-7.57-4.97-1.375-1.217-2.457-2.45-3.213-3.66-.88-1.412-1.328-2.81-1.328-4.152V6.49H2.138c1.317 0 3.35-.112 5.546-.652 2.482-.61 4.653-1.625 6.45-3.02l.044-.033.044.034c1.798 1.393 3.968 2.41 6.45 3.018 2.197.54 4.23.653 5.547.653h.1v12.89c0 1.34-.446 2.734-1.328 4.144-.757 1.21-1.84 2.44-3.216 3.66m6.58-7.803V4.364c-.247.03-1.035.112-2.14.112-2.9 0-8.313-.574-12.04-4.405C10.452 3.9 5.04 4.475 2.137 4.475c-1.103 0-1.89-.083-2.136-.112V19.38c0 2.015.745 4.058 2.213 6.073 1.177 1.615 2.82 3.216 4.883 4.758 3.347 2.503 6.736 4.04 7.08 4.193.347-.154 3.737-1.69 7.085-4.194 2.063-1.542 3.705-3.143 4.883-4.76 1.467-2.013 2.212-4.055 2.212-6.07"/><path d="M16.187 15.744h-4.02v-1.667c0-1.097.902-1.99 2.01-1.99 1.11 0 2.01.893 2.01 1.99v1.667zm-1.39 4.498v1.574c0 .137-.112.248-.25.248h-.74c-.138 0-.25-.11-.25-.248v-1.574c-.275-.193-.454-.51-.454-.868 0-.588.48-1.064 1.074-1.064.594 0 1.075.476 1.075 1.064 0 .358-.18.675-.454.868zm3.908-4.498h-.68v-1.667c0-2.1-1.727-3.81-3.848-3.81-2.12 0-3.846 1.71-3.846 3.81v1.667h-.68c-.22 0-.398.176-.398.394v7.39c0 .22.178.395.398.395h9.055c.22 0 .398-.176.398-.394v-7.392c0-.218-.18-.394-.398-.394z"/></g></svg>