<svg width="18" height="18" viewBox="0 0 18 18" xmlns="http://www.w3.org/2000/svg"><title></title><path d="M10 14.214286V12.07143c0-.10417-.033482-.189733-.100446-.256698-.066965-.066965-.15253-.100446-.256697-.100446H7.5c-.104167 0-.189732.03348-.256696.100446-.066965.066965-.100447.15253-.100447.256697v2.142856c0 .104167.033482.18973.100447.256696.066964.066965.15253.100447.256696.100447h2.142857c.104167 0 .189732-.033483.256697-.100448.066964-.066965.100446-.15253.100446-.256696zm2.857143-7.5c0-.654765-.20647-1.261158-.61942-1.819197-.412948-.55804-.928196-.989583-1.54576-1.294644-.61756-.30506-1.249995-.45759-1.89732-.45759-1.808045 0-3.18824.792404-4.140625 2.377233-.111608.178572-.081846.33482.089286.46875l1.473214 1.11607c.052083.044644.122767.066965.212053.066965.11905 0 .212055-.044642.27902-.13393.394346-.505953.714284-.848212.95982-1.026784.252978-.178572.572915-.267856.959822-.267856.357145 0 .675222.096725.95424.290178.27902.193453.418528.412945.418528.658482 0 .28274-.074404.509672-.223214.680804-.14881.171132-.401784.33854-.75893.502232-.46875.208334-.898434.530132-1.28906.965402-.390628.43527-.58594.902155-.58594 1.40067v.401785c0 .104167.033483.189732.100448.256697C7.310268 10.966518 7.395834 11 7.5 11h2.142857c.104167 0 .189732-.033482.256697-.100446.066964-.066965.100446-.15253.100446-.256697 0-.14137.079984-.32552.239955-.552455.15997-.226936.362722-.411086.60826-.552456.238096-.13393.420386-.239955.546874-.31808.126488-.078125.297617-.208332.513392-.390625.215775-.18229.381324-.36086.496652-.535713.115328-.174852.219494-.399924.3125-.675223.093006-.2753.13951-.576636.13951-.904018zm4.285714 2.142857c0 1.555067-.38318 2.989205-1.149553 4.302455s-1.80617 2.353047-3.11942 3.11942c-1.31325.766373-2.747388 1.149553-4.302455 1.149553-1.55507 0-2.989206-.38318-4.302457-1.149552-1.31325-.766373-2.353047-1.80617-3.11942-3.11942C.383182 11.846348 0 10.41221 0 8.857143c0-1.555067.38318-2.989205 1.149554-4.302456.766372-1.31325 1.80617-2.353046 3.11942-3.11942C5.582223.668896 7.01636.285715 8.571428.285715c1.555066 0 2.989203.38318 4.302454 1.149554 1.31325.766373 2.353047 1.80617 3.11942 3.11942.766372 1.31325 1.149553 2.747388 1.149553 4.302455z" fill="#000" fill-rule="evenodd"/></svg>