<svg width="58" height="80" viewBox="0 0 58 80" xmlns="http://www.w3.org/2000/svg" xmlns:xlink="http://www.w3.org/1999/xlink"><title>picked</title><defs><path id="a" d="M13.434 25.22V.13H.038v25.09h13.396z"/></defs><g fill="none" fill-rule="evenodd"><path d="M14.263 27.786c-2.544 8.704 2.63 32.655-.06 37.21-2.785 4.714.67.516-4.336 6.665-3.463 4.253 33.77 6.437 33.77-10.977 0-7.01-.626-13.78 5.187-16.708 5.98-3.013 2.542-15.695 1.022-9.107-2.323.536-3.197-.825-3.508-3.007-.572 8.573-2.07 18.687-5.296 24.364-2.105 3.704-4.292 3.91-3.293 2.74 3.246-3.804 1.182-5.272 2.042-9.376.925-4.417 2.985-23.158.86-32.782-1.944.3-4.552 1.353-8.057 3.44-3.763 2.242-12.3 9.306-18.332 7.54" fill="#FFC8C8"/><path d="M38.635 5.684c-9.872-9.953-26.88 3.118-30.26-3.787L7.404 0c-2.87 7.047-10.612 11.517-5.94 22.007 2.24 5.028 4.474 8.518 8.815 11.743 0 2.44-.137 5.14.875 7.375 0-10.884 16.05-5.174 25.304-21.303.528-.922 3.736-3.688 4.886-3.936-1.38-.378-2.544-.95-3.18-2.05-2.768-4.803-9.34.78-11.94 3.01-12.33 10.56-18.28-.404-16.643.235 4.656 1.82 7.55.59 12.07-1.672 2.656-1.33 3.932-3.324 5.32-4.207 3.02-1.922 1.194-3.167 1.105-4.088-.362-3.768 7.362-2.08 10.557-1.428m7.52 31.69c7.387-3.108 8.647-9.996 6.028-20.23-1.858.705-1.64 1.703-3.328.71-2.076-1.225-5.076-1.314-7.45-1.952.026 3.477 4.75 10.133 4.75 21.473" fill="#EBEBEB"/><path d="M42.915 16.336a.637.637 0 1 1 1.2-.424c.156.436.487.91.775 1.32l.024.036c.253.36.476.683.587.984 2.876 7.762 2.95 8.735 2.932 15.226 1.035-2.62 2.302-7.097 2.736-11.308.227-2.198.218-4.306-.183-6.005-.374-1.586-1.09-2.798-2.283-3.343-.9-.41-2.1-.467-3.667-.053a.638.638 0 0 1-.72-.314c-1.743-2.807-3.706-4.494-5.84-5.44-2.153-.956-4.505-1.172-6.998-1.032-.888.05-2.106.237-3.465.447-3.175.49-7.097 1.097-10.077.404.137.182.293.347.46.498.735.666 1.674 1.043 2.248 1.19a.635.635 0 0 1-.117 1.25 16.09 16.09 0 0 0-2.193.276c-.628.127-1.204.294-1.764.495-1.9.68-4.21 1.447-6.434 1.113-2.032-.306-3.927-1.503-5.26-4.445-.158.275-.307.545-.446.81-2.066 3.943-2.4 7.472-1.518 10.456.88 2.98 2.983 5.443 5.79 7.25.477.307.963.59 1.455.848.31.162.43.544.27.854-.583 1.13-.55 2.83-.233 4.485.266 1.383.714 2.704 1.16 3.628.073-.4.167-.815.278-1.234.275-1.042.658-2.11 1.097-2.96a.637.637 0 0 1 1.13.584c-.395.766-.744 1.74-.998 2.7-.26.984-.416 1.944-.416 2.637h-.002a.636.636 0 0 1-1.005.518c-.815-.58-2-3.058-2.495-5.633-.317-1.652-.37-3.378.107-4.732-.358-.2-.704-.41-1.035-.622-3.056-1.967-5.35-4.67-6.324-7.963-.97-3.287-.62-7.14 1.614-11.403A25.86 25.86 0 0 1 4.46 5.45a.635.635 0 0 1 1.135.134c1.143 3.28 2.876 4.532 4.73 4.81 1.922.29 4.055-.423 5.815-1.052a13.653 13.653 0 0 1 1.944-.54l.108-.02a5.84 5.84 0 0 1-.65-.508c-.658-.595-1.195-1.374-1.38-2.367a.636.636 0 0 1 .884-.695c2.707 1.204 7.226.506 10.77-.042 1.374-.21 2.606-.402 3.59-.457 2.68-.15 5.222.09 7.58 1.136 2.267 1.003 4.344 2.742 6.18 5.577 1.66-.365 2.998-.248 4.065.24 1.6.73 2.534 2.25 2.996 4.21.435 1.843.447 4.094.207 6.423-.632 6.13-3.08 12.934-4.137 14.163a.638.638 0 0 1-1.143-.39l.007-2.056c.02-6.774.022-7.558-2.854-15.327-.058-.157-.234-.41-.434-.695l-.023-.03c-.336-.478-.72-1.027-.935-1.63" fill="#2B2B2B"/><path d="M13.244 29.383a.637.637 0 0 1 .344-1.226c2.733.776 5.68.413 8.34-.725 2.835-1.212 5.333-3.297 6.897-5.82 1.29-2.08 2.885-3.848 4.805-5.06a11.107 11.107 0 0 1 6.034-1.744h.295a.638.638 0 0 1 0 1.276h-.296c-2.028 0-3.81.568-5.357 1.544-1.746 1.103-3.21 2.73-4.4 4.652-1.703 2.746-4.412 5.01-7.48 6.323-2.912 1.246-6.156 1.64-9.183.78M10.7 36.645a.635.635 0 1 1 1.256-.195c.244 1.57.446 3.145.642 4.682.503 3.93.975 7.62 2.03 10.183 1.214 2.945 2.907 5.82 4.884 7.81 1.608 1.618 3.394 2.637 5.233 2.585 1.307-.037 2.572 0 3.808.036 1.61.048 3.174.094 4.707-.035 3.1-.26 5.81-2.515 7.896-5.555 2.595-3.784 4.21-8.75 4.44-12.678a.636.636 0 0 1 1.042-.454c.54.415 1.017.64 1.436.71.616.1 1.14-.157 1.582-.633.516-.558.93-1.403 1.254-2.352.74-2.176.966-4.807.857-5.937a.635.635 0 1 1 1.265-.118c.12 1.246-.12 4.12-.916 6.465-.374 1.1-.875 2.1-1.528 2.805-.728.786-1.627 1.208-2.723 1.025a3.744 3.744 0 0 1-1.09-.372c-.444 3.94-2.075 8.623-4.568 12.258-2.287 3.334-5.31 5.81-8.842 6.108-1.57.133-3.184.086-4.847.037-1.22-.036-2.467-.073-3.738-.037-2.23.063-4.326-1.104-6.17-2.96-2.1-2.112-3.886-5.136-5.157-8.222-1.12-2.717-1.602-6.488-2.116-10.507a169.97 169.97 0 0 0-.637-4.645" fill="#2B2B2B"/><g transform="translate(44 48.864)"><mask id="b" fill="#fff"><use xlink:href="#a"/></mask><path d="M.522.664a.636.636 0 0 1 1.256.204c-.097.592-.18 1.196-.248 1.806-.538 4.81-.116 9.78 1.59 13.722 1.67 3.858 4.59 6.73 9.07 7.46.216.036.443.067.678.093.35.038.6.353.563.702-.038.35-.353.6-.702.563a15.955 15.955 0 0 1-.743-.102C7.017 24.3 3.79 21.14 1.955 16.9.154 12.742-.296 7.542.264 2.535c.07-.622.156-1.247.257-1.87" fill="#2B2B2B" mask="url(#b)"/></g><path d="M16.09 64.708a.637.637 0 1 1 1.245.27c-.583 2.69-1.603 4.707-2.87 6.273-1.265 1.565-2.774 2.67-4.338 3.544a.636.636 0 1 1-.618-1.11c1.432-.8 2.81-1.81 3.963-3.235 1.15-1.423 2.08-3.268 2.617-5.742M18.96 23.324a.636.636 0 1 1 .488 1.176c-2.063.858-4.22.814-6.138.153-2.077-.716-3.877-2.16-4.97-3.97a.637.637 0 1 1 1.092-.658c.94 1.557 2.495 2.803 4.29 3.422 1.643.566 3.485.606 5.238-.123" fill="#2B2B2B"/><path d="M13 72.465a.635.635 0 0 1 .86-.932c4.04 3.733 8.1 5.866 12.067 6.677 4.28.874 8.47.212 12.432-1.64a.636.636 0 0 1 .538 1.152c-4.205 1.964-8.663 2.666-13.225 1.734-4.188-.856-8.454-3.09-12.673-6.99" fill="#2B2B2B"/></g></svg>