<svg width="24" height="24" viewBox="0 0 24 24" xmlns="http://www.w3.org/2000/svg"><title>Check women</title><g transform="translate(1 1)" fill="none" fill-rule="evenodd"><ellipse stroke="#979797" fill="#FFF" cx="11" cy="11" rx="11" ry="11"/><path d="M17.054688 8.421875c0 .208334-.072916.385416-.21875.53125l-6.71875 6.71875c-.145835.145834-.322916.21875-.53125.21875-.208335 0-.385416-.072916-.53125-.21875L5.16406 11.78125c-.145834-.145834-.21875-.322916-.21875-.53125 0-.208334.072916-.385416.21875-.53125l1.0625-1.0625c.145835-.145834.322916-.21875.53125-.21875.208335 0 .385416.072916.53125.21875l2.296875 2.304688 5.125-5.132813c.145835-.145834.322916-.21875.53125-.21875.208335 0 .385416.072916.53125.21875l1.0625 1.0625c.145835.145834.21875.322916.21875.53125z" fill="#FF458F"/></g></svg>