<svg width="60" height="74" viewBox="0 0 60 74" xmlns="http://www.w3.org/2000/svg" xmlns:xlink="http://www.w3.org/1999/xlink"><title>picked-female</title><defs><path id="a" d="M39.676.543H0V74h59.723V.543H0v59h39.676v-59z"/><path id="c" d="M47.723 57V.803H.477V57h47.246z"/></defs><g fill="none" fill-rule="evenodd"><g transform="translate(0 -.543)"><mask id="b" fill="#fff"><use xlink:href="#a"/></mask><path d="M16.16 3.114c-32.412 11.022-8.038 65.148 3.95 55.22 0-6.202-24.7-26.552 3.143-34.612.534-.155 10.245-5.744-.105-4.72-12.214 1.21 1.613-12.314 13.87-15.23 8.836-2.1-5.965-5.723-20.858-.658" fill="#EBEBEB" mask="url(#b)"/></g><path d="M50.802 21.353c8.336 1.578.19 26.93-8.236 30.557-5.55 2.39 12.918-14.17 4.583-29.854-.56-1.05 1.894-1.036 3.652-.703" fill="#EBEBEB"/><g transform="translate(12 16.457)"><mask id="d" fill="#fff"><use xlink:href="#c"/></mask><path d="M45.61 50.096c-3.535-3.45-21.42-7.174-11.54-24.01 3.715-6.33 4.307-31.76-8.107-23.73C21.96 4.946 13.88 5.752 6.778 9.96l-.26.114C-1.677 22.11 20.867 36.63 2.277 44.97c-8.802 3.95 17.31 11.052 21.368 11.208 1.032.04 32.367 4.07 21.964-6.082" fill="#FFECF3" mask="url(#d)"/></g><path d="M47.696 39.656a30.19 30.19 0 0 1-1 3.09 25.58 25.58 0 0 1-1.266 2.805c-.964 1.82-2.15 3.515-3.91 4.98-1.75 1.455-4.056 2.664-7.258 3.505a.636.636 0 0 1-.324-1.23c3.01-.79 5.157-1.91 6.77-3.253 1.604-1.334 2.698-2.906 3.596-4.6.458-.86.86-1.757 1.207-2.66.374-.97.693-1.97.955-2.96.233-.878.41-2.11.538-3.852.132-1.79.212-4.075.248-7.022a.636.636 0 0 1 .644-.628" fill="#2B2B2B"/><path d="M52.49 64.323c-3.556-.678-7.022-1.34-9.052-3.95-1.184-1.52-1.797-3.348-2.11-5.226-.308-1.84-.33-3.706-.33-5.375a.638.638 0 0 1 1.277 0c0 1.625.02 3.437.31 5.166.282 1.688.822 3.32 1.86 4.654 1.736 2.232 4.965 2.848 8.28 3.48M15.85 34.318a.638.638 0 0 1 1.276 0c0 4.066.64 7.004 1.955 9.564 1.323 2.574 3.35 4.81 6.104 7.447.13.124.195.29.195.457 0 1.304-.273 3.03-.824 4.705-.468 1.42-1.14 2.82-2.025 3.918-2.057 2.558-5.484 3.24-8.987 3.934-3.023.6-6.107 1.213-8.182 3.077a.636.636 0 1 1-.85-.946c2.336-2.1 5.595-2.746 8.79-3.38 3.27-.65 6.473-1.286 8.24-3.48.777-.968 1.38-2.228 1.805-3.52.47-1.432.722-2.892.756-4.04-2.743-2.642-4.778-4.923-6.15-7.594-1.412-2.75-2.1-5.867-2.1-10.142" fill="#2B2B2B"/><path d="M44.384 9.887a.637.637 0 0 1 1.13.583c-4.427 8.534-13.942 12.023-21.755 14.888-3.116 1.143-5.956 2.184-8.033 3.39-3.16 1.835-4.526 4.12-2.27 8.004a.636.636 0 0 1-1.102.638c-2.75-4.738-1.098-7.517 2.735-9.743 2.177-1.264 5.063-2.323 8.23-3.484 7.605-2.79 16.866-6.185 21.064-14.276" fill="#2B2B2B"/><path d="M45.813 9.626a.637.637 0 0 1-1.252-.24c.377-1.95-.64-3.584-2.56-4.788-1.64-1.03-3.925-1.75-6.58-2.106-2.688-.36-5.747-.34-8.9.12-9.505 1.382-19.841 6.755-23.44 17.76-.12.365-.227.72-.323 1.068C.873 28.246 1.982 35.717 5.4 42.09c3.415 6.373 9.137 11.642 16.48 14.043.414.135.823.26 1.223.37a.637.637 0 0 1-.34 1.225c-.44-.122-.867-.25-1.276-.384-7.67-2.508-13.645-8.007-17.21-14.656C.712 36.038-.44 28.228 1.532 21.1c.107-.386.22-.76.337-1.12C5.646 8.422 16.43 2.79 26.34 1.35c3.265-.474 6.442-.493 9.244-.12 2.832.38 5.292 1.165 7.09 2.292 2.38 1.49 3.627 3.568 3.14 6.104" fill="#2B2B2B"/><path d="M54.968 14.996c-2.185-3.13-5.316-5.174-9.42-5.335a.634.634 0 1 1 .05-1.268c4.546.177 8.005 2.43 10.41 5.878M58.79 39.52c-1.984 7.127-6.15 13.31-12.387 15.66a.638.638 0 0 1-.45-1.193c5.82-2.19 9.728-8.042 11.612-14.805M48.838 26.378c-2.374-3.406-4.955-7.108-4.177-11.23a.636.636 0 0 1 1.252.234c-.68 3.596 1.744 7.072 3.973 10.27" fill="#2B2B2B"/></g></svg>